<svg width="1585" height="1467" viewBox="0 0 1585 1467" fill="none" xmlns="http://www.w3.org/2000/svg">
<g filter="url(#filter0_di_305_6)">
<path d="M100.701 427.32L365.089 1138.1H1166.03L1484.85 427.32L792.78 872.14L100.701 427.32Z" fill="#24A9E7"/>
<path d="M870.77 71.3319C822.53 43.3669 763.02 43.3669 714.78 71.3319L100.701 427.32L792.78 872.14L1484.85 427.32L870.77 71.3319Z" fill="url(#paint0_radial_305_6)"/>
<g filter="url(#filter1_d_305_6)">
<path d="M1298.22 430.47H287.328C244.382 430.47 209.566 465.29 209.566 508.23V912.59C209.566 955.54 244.382 990.35 287.328 990.35H1298.22C1341.16 990.35 1375.98 955.54 1375.98 912.59V508.23C1375.98 465.29 1341.16 430.47 1298.22 430.47Z" fill="url(#paint1_radial_305_6)"/>
</g>
<path fill-rule="evenodd" clip-rule="evenodd" d="M1484.85 1239.19C1484.85 1282.14 1450.03 1316.95 1407.09 1316.95H178.462C135.516 1316.95 100.701 1282.14 100.701 1239.19V427.32L775.23 860.86C786.72 868.25 799.96 872.47 813.61 873.12L1410.76 901.32C1452.24 903.28 1484.85 937.47 1484.85 978.99V1239.19Z" fill="url(#paint2_radial_305_6)"/>
<path d="M1424.94 1278.46C1450.82 1295.08 1484.85 1276.5 1484.85 1245.75V427.32L792.78 872.14L1424.94 1278.46Z" fill="url(#paint3_radial_305_6)"/>
</g>
<defs>
<filter id="filter0_di_305_6" x="0.701172" y="0.358154" width="1584.15" height="1466.59" filterUnits="userSpaceOnUse" color-interpolation-filters="sRGB">
<feFlood flood-opacity="0" result="BackgroundImageFix"/>
<feColorMatrix in="SourceAlpha" type="matrix" values="0 0 0 0 0 0 0 0 0 0 0 0 0 0 0 0 0 0 127 0" result="hardAlpha"/>
<feOffset dy="50"/>
<feGaussianBlur stdDeviation="50"/>
<feComposite in2="hardAlpha" operator="out"/>
<feColorMatrix type="matrix" values="0 0 0 0 0 0 0 0 0 0 0 0 0 0 0 0 0 0 0.25 0"/>
<feBlend mode="normal" in2="BackgroundImageFix" result="effect1_dropShadow_305_6"/>
<feBlend mode="normal" in="SourceGraphic" in2="effect1_dropShadow_305_6" result="shape"/>
<feColorMatrix in="SourceAlpha" type="matrix" values="0 0 0 0 0 0 0 0 0 0 0 0 0 0 0 0 0 0 127 0" result="hardAlpha"/>
<feOffset dy="2"/>
<feGaussianBlur stdDeviation="5"/>
<feComposite in2="hardAlpha" operator="arithmetic" k2="-1" k3="1"/>
<feColorMatrix type="matrix" values="0 0 0 0 0 0 0 0 0 0 0 0 0 0 0 0 0 0 0.05 0"/>
<feBlend mode="normal" in2="shape" result="effect2_innerShadow_305_6"/>
</filter>
<filter id="filter1_d_305_6" x="199.566" y="420.47" width="1186.41" height="579.88" filterUnits="userSpaceOnUse" color-interpolation-filters="sRGB">
<feFlood flood-opacity="0" result="BackgroundImageFix"/>
<feColorMatrix in="SourceAlpha" type="matrix" values="0 0 0 0 0 0 0 0 0 0 0 0 0 0 0 0 0 0 127 0" result="hardAlpha"/>
<feOffset/>
<feGaussianBlur stdDeviation="5"/>
<feComposite in2="hardAlpha" operator="out"/>
<feColorMatrix type="matrix" values="0 0 0 0 0 0 0 0 0 0 0 0 0 0 0 0 0 0 0.25 0"/>
<feBlend mode="normal" in2="BackgroundImageFix" result="effect1_dropShadow_305_6"/>
<feBlend mode="normal" in="SourceGraphic" in2="effect1_dropShadow_305_6" result="shape"/>
</filter>
<radialGradient id="paint0_radial_305_6" cx="0" cy="0" r="1" gradientUnits="userSpaceOnUse" gradientTransform="translate(785 716.08) rotate(90) scale(703.364 875.516)">
<stop stop-color="#0E4F97"/>
<stop offset="1" stop-color="#0868B5"/>
</radialGradient>
<radialGradient id="paint1_radial_305_6" cx="0" cy="0" r="1" gradientUnits="userSpaceOnUse" gradientTransform="translate(785 990.35) rotate(-90) scale(559.881 1166.42)">
<stop stop-color="#C0C0C0"/>
<stop offset="1" stop-color="#F1F2F3"/>
</radialGradient>
<radialGradient id="paint2_radial_305_6" cx="0" cy="0" r="1" gradientUnits="userSpaceOnUse" gradientTransform="translate(1438.19 1316.95) rotate(-154.612) scale(1523.5 1633.64)">
<stop stop-color="#0987DD"/>
<stop offset="1" stop-color="#29AEE9"/>
</radialGradient>
<radialGradient id="paint3_radial_305_6" cx="0" cy="0" r="1" gradientUnits="userSpaceOnUse" gradientTransform="translate(1461.52 1270.29) rotate(-122.137) scale(716.289 1114.45)">
<stop stop-color="#16A2DF"/>
<stop offset="1" stop-color="#45CAEE"/>
</radialGradient>
</defs>
</svg>
