<?xml version="1.0" encoding="utf-8"?>
<!-- Generator: Adobe Illustrator 27.2.0, SVG Export Plug-In . SVG Version: 6.00 Build 0)  -->
<svg version="1.1" id="Layer_1" xmlns="http://www.w3.org/2000/svg" xmlns:xlink="http://www.w3.org/1999/xlink" x="0px" y="0px"
	 viewBox="0 0 200 36" style="enable-background:new 0 0 200 36;" xml:space="preserve">
<style type="text/css">
	.st0{fill:#F9F9FF;}
</style>
<g>
	<path class="st0" d="M45,30.7c-1.5,0-2.8-0.2-4-0.7s-2.2-1.1-3-2c-0.8-0.8-1.4-1.9-1.8-3c-0.4-1.2-0.6-2.5-0.6-3.9s0.2-2.8,0.7-3.9
		s1.1-2.2,1.9-3.1c0.8-0.8,1.8-1.5,3-1.9s2.5-0.7,3.9-0.7s2.7,0.2,3.9,0.7s2.1,1.1,2.9,1.9c0.8,0.8,1.4,1.8,1.9,3s0.7,2.5,0.7,4
		s-0.2,2.8-0.7,4s-1,2.2-1.9,3s-1.8,1.5-2.9,2S46.4,30.7,45,30.7L45,30.7z M45,26.7c3,0,4.4-1.9,4.4-5.6s-1.5-5.5-4.4-5.5
		s-4.4,1.8-4.4,5.5S42,26.7,45,26.7z"/>
	<path class="st0" d="M67.7,30.2V19.1c0-1.4-0.2-2.4-0.7-2.9c-0.5-0.5-1.3-0.7-2.4-0.7c-2.5,0-3.8,1.4-3.8,4.2v10.5H56V11.9h4.6v2.7
		c0.6-1,1.3-1.8,2.3-2.4c0.9-0.5,2.1-0.8,3.6-0.8c0.9,0,1.7,0.1,2.4,0.4c0.7,0.3,1.4,0.6,1.9,1.2c0.5,0.5,0.9,1.2,1.3,1.9
		c0.3,0.8,0.5,1.6,0.5,2.6v12.7H67.7L67.7,30.2z"/>
	<path class="st0" d="M78.9,30.2l-6.5-18.3h5.4L81.6,24l3.9-12.1h5.1l-6.6,18.3C83.9,30.2,78.9,30.2,78.9,30.2z"/>
	<path class="st0" d="M95,22.4c0.1,1.4,0.5,2.5,1.2,3.3c0.7,0.8,1.7,1.2,2.9,1.2c0.8,0,1.5-0.2,2.1-0.5s1-0.9,1.2-1.5h5
		c-0.6,1.9-1.6,3.3-3,4.4s-3.1,1.5-5.1,1.5c-6.1,0-9.1-3.3-9.1-10c0-1.4,0.2-2.7,0.6-3.8c0.4-1.1,1-2.1,1.7-2.9
		c0.8-0.8,1.7-1.4,2.8-1.9c1.1-0.4,2.3-0.6,3.8-0.6c2.8,0,5,0.9,6.4,2.7s2.2,4.5,2.2,8.2L95,22.4L95,22.4z M102.6,19.3
		c0-0.7-0.1-1.3-0.3-1.8c-0.2-0.5-0.5-0.9-0.8-1.3s-0.7-0.6-1.2-0.7c-0.4-0.2-0.9-0.2-1.4-0.2c-1,0-1.8,0.4-2.5,1.1s-1.1,1.7-1.2,3
		L102.6,19.3L102.6,19.3z"/>
	<path class="st0" d="M109.2,30.2V11.9h4.5v2.2c0.4-0.6,0.8-1.1,1.2-1.4c0.4-0.4,0.9-0.6,1.3-0.8c0.5-0.2,0.9-0.3,1.4-0.4
		s0.9-0.1,1.4-0.1h0.6v4.9c-0.4-0.1-0.9-0.1-1.3-0.1c-2.9,0-4.4,1.5-4.4,4.4v9.5L109.2,30.2L109.2,30.2z"/>
	<path class="st0" d="M131.5,17.5c-0.1-0.9-0.4-1.5-1-1.9s-1.3-0.5-2.4-0.5c-0.9,0-1.6,0.1-2.1,0.4c-0.5,0.2-0.7,0.6-0.7,1.2
		s0.2,1,0.7,1.2c0.5,0.3,1.2,0.6,2.2,0.8c1,0.3,2,0.6,3,0.8s1.8,0.5,2.5,0.8c1,0.4,1.7,0.9,2.2,1.6c0.5,0.7,0.8,1.6,0.8,2.8
		c0,1.9-0.7,3.4-2,4.5c-1.4,1.1-3.3,1.6-6,1.6c-2.8,0-5-0.6-6.5-1.8s-2.3-2.7-2.3-4.6h5c0,0.9,0.3,1.5,1,2s1.6,0.7,2.8,0.7
		c0.9,0,1.6-0.1,2.3-0.4c0.6-0.3,1-0.8,1-1.5c0-0.6-0.3-1.1-0.9-1.4s-1.3-0.5-2.1-0.7c-1.5-0.4-2.8-0.7-3.7-1
		c-0.9-0.3-1.7-0.7-2.4-1.1c-0.9-0.5-1.5-1.2-1.8-1.9c-0.3-0.7-0.5-1.5-0.5-2.3c0-0.8,0.1-1.5,0.4-2.1c0.3-0.7,0.7-1.2,1.3-1.7
		c0.6-0.5,1.4-0.9,2.4-1.1s2.2-0.4,3.5-0.4c2.6,0,4.6,0.5,5.9,1.5c1.2,1,1.9,2.5,2.1,4.5L131.5,17.5L131.5,17.5z"/>
	<path class="st0" d="M138.1,9.8V5.3h4.8v4.5L138.1,9.8L138.1,9.8z M138.1,30.2V11.9h4.8v18.3L138.1,30.2L138.1,30.2z"/>
	<path class="st0" d="M154.1,30.7c-1.5,0-2.8-0.2-4-0.7s-2.1-1.1-2.9-2c-0.8-0.8-1.4-1.9-1.8-3c-0.4-1.2-0.6-2.5-0.6-3.9
		s0.2-2.8,0.6-3.9s1.1-2.2,1.9-3.1c0.8-0.8,1.8-1.5,2.9-1.9s2.5-0.7,3.9-0.7s2.7,0.2,3.9,0.7s2.1,1.1,2.9,1.9c0.8,0.8,1.4,1.8,1.9,3
		s0.6,2.5,0.6,4s-0.2,2.8-0.6,4s-1.1,2.2-1.9,3s-1.8,1.5-2.9,2S155.6,30.7,154.1,30.7L154.1,30.7z M154.1,26.7
		c2.9,0,4.4-1.9,4.4-5.6s-1.5-5.5-4.4-5.5s-4.4,1.8-4.4,5.5S151.2,26.7,154.1,26.7z"/>
	<path class="st0" d="M176.9,30.2V19.1c0-1.4-0.2-2.4-0.7-2.9c-0.5-0.5-1.3-0.7-2.4-0.7c-2.5,0-3.8,1.4-3.8,4.2v10.5h-4.8V11.9h4.6
		v2.7c0.6-1,1.3-1.8,2.3-2.4c0.9-0.5,2.1-0.8,3.6-0.8c0.9,0,1.7,0.1,2.4,0.4s1.4,0.6,1.9,1.2s0.9,1.2,1.3,1.9
		c0.3,0.8,0.5,1.6,0.5,2.6v12.7H176.9L176.9,30.2z"/>
	<path class="st0" d="M194.8,17.5c-0.1-0.9-0.4-1.5-1-1.9s-1.3-0.5-2.4-0.5c-0.9,0-1.6,0.1-2.1,0.4c-0.5,0.2-0.7,0.6-0.7,1.2
		s0.2,1,0.7,1.2c0.5,0.3,1.2,0.6,2.2,0.8c1,0.3,2,0.6,3,0.8s1.8,0.5,2.5,0.8c1,0.4,1.7,0.9,2.2,1.6c0.5,0.7,0.8,1.6,0.8,2.8
		c0,1.9-0.7,3.4-2,4.5c-1.4,1.1-3.3,1.6-6,1.6c-2.8,0-5-0.6-6.5-1.8s-2.3-2.7-2.3-4.6h5c0,0.9,0.3,1.5,1,2s1.6,0.7,2.8,0.7
		c0.9,0,1.6-0.1,2.3-0.4c0.6-0.3,1-0.8,1-1.5c0-0.6-0.3-1.1-0.9-1.4s-1.3-0.5-2.1-0.7c-1.5-0.4-2.8-0.7-3.7-1
		c-0.9-0.3-1.7-0.7-2.4-1.1c-0.9-0.5-1.5-1.2-1.8-1.9c-0.3-0.7-0.5-1.5-0.5-2.3c0-0.8,0.1-1.5,0.4-2.1c0.3-0.7,0.7-1.2,1.3-1.7
		c0.6-0.5,1.4-0.9,2.4-1.1s2.2-0.4,3.6-0.4c2.6,0,4.6,0.5,5.9,1.5c1.2,1,1.9,2.5,2.1,4.5L194.8,17.5L194.8,17.5z"/>
</g>
<path id="logorotate" class="st0" d="M18,30.5c-6.9,0-12.5-5.6-12.5-12.5S11.1,5.5,18,5.5c2,0,4,0.5,5.8,1.4l-4.2,2.1l13.6,9l1-16.3
	l-4.9,2.4C26.2,1.4,22.2,0,18,0C8.1,0,0,8.1,0,18s8.1,18,18,18c6.9,0,13.2-4,16.2-10.2l-4.9-2.4C27.2,27.7,22.8,30.5,18,30.5
	L18,30.5z"/>
</svg>
