<?xml version="1.0" encoding="utf-8"?>
<!-- Generator: Adobe Illustrator 27.2.0, SVG Export Plug-In . SVG Version: 6.00 Build 0)  -->
<svg
  version="1.1"
  id="Layer_1"
  xmlns="http://www.w3.org/2000/svg"
  xmlns:xlink="http://www.w3.org/1999/xlink"
  x="0px"
  y="0px"
  viewBox="0 0 238 238"
  style="enable-background: new 0 0 238 238"
  xml:space="preserve"
>
  <style>
    .st0 {
      fill-rule: evenodd;
      clip-rule: evenodd;
      fill: #495c51;
    }
    @media (prefers-color-scheme: dark) {
      .st0 {
        fill: #7b9c8a;
      }
    }
  </style>
  <path
    class="st0"
    d="M0,39.6c0-10.5,4.2-20.6,11.6-28C19,4.2,29.1,0,39.6,0h158.5c10.5,0,20.6,4.2,28,11.6
	c7.4,7.4,11.6,17.5,11.6,28v158.5c0,10.5-4.2,20.6-11.6,28s-17.5,11.6-28,11.6H39.6c-10.5,0-20.6-4.2-28-11.6
	C4.2,218.7,0,208.6,0,198.1V39.6z M188.2,118.9c0,2.6-1,5.1-2.9,7l-29.7,29.7c-0.9,1-2,1.8-3.2,2.3c-1.2,0.5-2.5,0.8-3.9,0.9
	c-1.3,0-2.7-0.2-3.9-0.7c-1.2-0.5-2.4-1.2-3.3-2.2c-0.9-0.9-1.7-2.1-2.2-3.3c-0.5-1.2-0.7-2.6-0.7-3.9c0-1.3,0.3-2.6,0.9-3.9
	c0.5-1.2,1.3-2.3,2.3-3.2l22.7-22.7l-22.7-22.7c-1-0.9-1.8-2-2.3-3.2c-0.5-1.2-0.8-2.5-0.9-3.9c0-1.3,0.2-2.7,0.7-3.9
	c0.5-1.2,1.2-2.4,2.2-3.3c0.9-0.9,2.1-1.7,3.3-2.2c1.2-0.5,2.6-0.7,3.9-0.7c1.3,0,2.6,0.3,3.9,0.9c1.2,0.5,2.3,1.3,3.2,2.3
	l29.7,29.7C187.2,113.7,188.2,116.2,188.2,118.9z M52.4,111.9c-1.9,1.9-2.9,4.4-2.9,7s1,5.1,2.9,7l29.7,29.7c0.9,1,2,1.8,3.2,2.3
	c1.2,0.5,2.5,0.8,3.9,0.9c1.3,0,2.7-0.2,3.9-0.7c1.2-0.5,2.4-1.2,3.3-2.2c0.9-0.9,1.7-2.1,2.2-3.3c0.5-1.2,0.7-2.6,0.7-3.9
	c0-1.3-0.3-2.6-0.9-3.9c-0.5-1.2-1.3-2.3-2.3-3.2l-22.7-22.7l22.7-22.7c1-0.9,1.8-2,2.3-3.2c0.5-1.2,0.8-2.5,0.9-3.9
	c0-1.3-0.2-2.7-0.7-3.9c-0.5-1.2-1.2-2.4-2.2-3.3c-0.9-0.9-2.1-1.7-3.3-2.2c-1.2-0.5-2.6-0.7-3.9-0.7c-1.3,0-2.6,0.3-3.9,0.9
	c-1.2,0.5-2.3,1.3-3.2,2.3L52.4,111.9z"
  />
</svg>
