<?xml version="1.0" encoding="utf-8"?>
<!-- Generator: Adobe Illustrator 27.2.0, SVG Export Plug-In . SVG Version: 6.00 Build 0)  -->
<svg version="1.1" id="Layer_1" xmlns="http://www.w3.org/2000/svg" xmlns:xlink="http://www.w3.org/1999/xlink" x="0px" y="0px"
	 viewBox="0 0 348.4 225.5" style="enable-background:new 0 0 348.4 225.5;" xml:space="preserve">
<style type="text/css">
	.st0{fill:#644123;}
	.st1{fill:#936037;}
	.st2{fill:#DCDAC9;}
	.st3{fill:#4A4942;}
	.st4{opacity:0.4;enable-background:new    ;}
	.st5{fill:none;stroke:#DCDAC9;stroke-width:7;stroke-miterlimit:10;}
</style>
<g>
	<path class="st0" d="M312,47.3c-16.5,1.6-28.5,16.2-26.9,32.7c1,10.3,7.1,18.9,15.6,23.5c-3.6-4.4-6.1-10-6.7-16.1
		c-1.6-16.5,10.5-31.1,26.9-32.7c6.2-0.6,12,0.7,17.1,3.4C332,50.7,322.4,46.3,312,47.3z"/>
	<path class="st1" d="M294,87.4c0.6,6.2,3,11.7,6.7,16.1c5.1,2.7,10.9,4,17.1,3.4c16.5-1.6,28.5-16.2,26.9-32.7
		c-0.6-6.2-3-11.7-6.7-16.1c-5.1-2.7-10.9-4-17.1-3.4C304.5,56.3,292.4,70.9,294,87.4z"/>
</g>
<g>
	<path class="st2" d="M247.9,26.5l32.8,123.1c2.2,8.4-2.8,17.1-11.2,19.4L59.2,225c-8.4,2.2-17.1-2.8-19.3-11.2L7.1,90.7
		c-2.2-8.4,2.8-17.1,11.2-19.3l210.2-56c3.3-0.9,6.7-0.6,9.6,0.5C242.8,17.5,246.5,21.4,247.9,26.5z"/>
	
		<rect x="21.7" y="89.7" transform="matrix(0.9663 -0.2575 0.2575 0.9663 -23.3656 11.3286)" class="st3" width="19.7" height="10.3"/>
	
		<rect x="46.4" y="83.2" transform="matrix(0.9663 -0.2575 0.2575 0.9663 -20.8451 17.4515)" class="st3" width="19.7" height="10.3"/>
	
		<rect x="71" y="76.6" transform="matrix(0.9663 -0.2575 0.2575 0.9663 -18.3253 23.5746)" class="st3" width="19.7" height="10.3"/>
	<rect x="95.6" y="70" transform="matrix(0.9663 -0.2575 0.2575 0.9663 -15.805 29.6968)" class="st3" width="19.7" height="10.3"/>
	
		<rect x="120.3" y="63.5" transform="matrix(0.9663 -0.2575 0.2575 0.9663 -13.2845 35.8197)" class="st3" width="19.7" height="10.3"/>
	
		<rect x="144.9" y="56.9" transform="matrix(0.9663 -0.2575 0.2575 0.9663 -10.7617 41.9416)" class="st3" width="19.7" height="10.3"/>
	
		<rect x="169.6" y="50.3" transform="matrix(0.9663 -0.2575 0.2575 0.9663 -8.2422 48.062)" class="st3" width="19.7" height="10.3"/>
	
		<rect x="194.2" y="43.8" transform="matrix(0.9663 -0.2575 0.2575 0.9663 -5.7193 54.1839)" class="st3" width="19.7" height="10.3"/>
	
		<rect x="218.8" y="37.2" transform="matrix(0.9663 -0.2575 0.2575 0.9663 -3.1988 60.3068)" class="st3" width="19.7" height="10.3"/>
	
		<rect x="27.6" y="110" transform="matrix(0.9663 -0.2575 0.2575 0.9663 -28.8449 13.5884)" class="st3" width="19.7" height="13.9"/>
	
		<rect x="52.2" y="103.4" transform="matrix(0.9663 -0.2575 0.2575 0.9663 -26.3255 19.7088)" class="st3" width="19.7" height="13.9"/>
	
		<rect x="76.9" y="96.9" transform="matrix(0.9663 -0.2575 0.2575 0.9663 -23.8026 25.8307)" class="st3" width="19.7" height="13.9"/>
	
		<rect x="101.5" y="90.3" transform="matrix(0.9663 -0.2575 0.2575 0.9663 -21.2821 31.9536)" class="st3" width="19.7" height="13.9"/>
	
		<rect x="126.2" y="83.7" transform="matrix(0.9663 -0.2575 0.2575 0.9663 -18.7602 38.0731)" class="st3" width="19.7" height="13.9"/>
	
		<rect x="150.8" y="77.2" transform="matrix(0.9663 -0.2575 0.2575 0.9663 -16.2398 44.196)" class="st3" width="19.7" height="13.9"/>
	
		<rect x="175.4" y="70.6" transform="matrix(0.9663 -0.2575 0.2575 0.9663 -13.7195 50.3182)" class="st3" width="19.7" height="13.9"/>
	
		<rect x="199.6" y="60.8" transform="matrix(0.9663 -0.2575 0.2575 0.9663 -9.9398 59.5001)" class="st3" width="45.2" height="13.9"/>
	
		<rect x="31.9" y="126.1" transform="matrix(0.9663 -0.2575 0.2575 0.9663 -32.844 15.233)" class="st3" width="19.7" height="13.9"/>
	
		<rect x="56.5" y="119.5" transform="matrix(0.9663 -0.2575 0.2575 0.9663 -30.3242 21.3561)" class="st3" width="19.7" height="13.9"/>
	
		<rect x="81.2" y="113" transform="matrix(0.9663 -0.2575 0.2575 0.9663 -27.8039 27.4783)" class="st3" width="19.7" height="13.9"/>
	
		<rect x="105.8" y="106.4" transform="matrix(0.9663 -0.2575 0.2575 0.9663 -25.2834 33.6012)" class="st3" width="19.7" height="13.9"/>
	
		<rect x="130.4" y="99.8" transform="matrix(0.9663 -0.2575 0.2575 0.9663 -22.7639 39.7217)" class="st3" width="19.7" height="13.9"/>
	
		<rect x="155.1" y="93.3" transform="matrix(0.9663 -0.2575 0.2575 0.9663 -20.2411 45.8436)" class="st3" width="19.7" height="13.9"/>
	
		<rect x="179.7" y="86.7" transform="matrix(0.9663 -0.2575 0.2575 0.9663 -17.7206 51.9664)" class="st3" width="19.7" height="13.9"/>
	
		<rect x="36.2" y="142.2" transform="matrix(0.9663 -0.2575 0.2575 0.9663 -36.8477 16.8816)" class="st3" width="19.7" height="13.9"/>
	
		<rect x="60.8" y="135.6" transform="matrix(0.9663 -0.2575 0.2575 0.9663 -34.3258 23.0011)" class="st3" width="19.7" height="13.9"/>
	
		<rect x="85.5" y="129.1" transform="matrix(0.9663 -0.2575 0.2575 0.9663 -31.8054 29.124)" class="st3" width="19.7" height="13.9"/>
	
		<rect x="110.1" y="122.5" transform="matrix(0.9663 -0.2575 0.2575 0.9663 -29.2847 35.2488)" class="st3" width="19.7" height="13.9"/>
	
		<rect x="134.7" y="116" transform="matrix(0.9663 -0.2575 0.2575 0.9663 -26.7652 41.3693)" class="st3" width="19.7" height="13.9"/>
	
		<rect x="159.4" y="109.4" transform="matrix(0.9663 -0.2575 0.2575 0.9663 -24.2424 47.4912)" class="st3" width="19.7" height="13.9"/>
	
		<rect x="184" y="102.8" transform="matrix(0.9663 -0.2575 0.2575 0.9663 -21.7219 53.614)" class="st3" width="19.7" height="13.9"/>
	
		<rect x="208.6" y="96.3" transform="matrix(0.9663 -0.2575 0.2575 0.9663 -19.2024 59.7345)" class="st3" width="19.7" height="13.9"/>
	<polygon class="st3" points="202.9,82.9 206.5,96.3 231.1,89.8 235.4,105.9 254.4,100.8 250.1,84.7 246.6,71.3 	"/>
	
		<rect x="40.5" y="158.3" transform="matrix(0.9663 -0.2575 0.2575 0.9663 -40.849 18.5292)" class="st3" width="19.7" height="13.9"/>
	
		<rect x="65.1" y="151.8" transform="matrix(0.9663 -0.2575 0.2575 0.9663 -38.3295 24.6497)" class="st3" width="19.7" height="13.9"/>
	
		<rect x="89.7" y="145.2" transform="matrix(0.9663 -0.2575 0.2575 0.9663 -35.8067 30.7716)" class="st3" width="19.7" height="13.9"/>
	
		<rect x="113.5" y="132.1" transform="matrix(0.9663 -0.2575 0.2575 0.9663 -30.7664 43.0155)" class="st3" width="70.7" height="13.9"/>
	
		<rect x="188.3" y="118.9" transform="matrix(0.9663 -0.2575 0.2575 0.9663 -25.7232 55.2616)" class="st3" width="19.7" height="13.9"/>
	
		<rect x="212.9" y="112.4" transform="matrix(0.9663 -0.2575 0.2575 0.9663 -23.2027 61.3845)" class="st3" width="19.7" height="13.9"/>
	
		<rect x="237.6" y="105.8" transform="matrix(0.9663 -0.2575 0.2575 0.9663 -20.6809 67.504)" class="st3" width="19.7" height="13.9"/>
	
		<rect x="120" y="152" transform="matrix(0.9663 -0.2575 0.2575 0.9663 -38.2604 46.1025)" class="st3" width="73.8" height="34.4"/>
	
		<rect x="-2.7" y="31.9" transform="matrix(0.9663 -0.2575 0.2575 0.9663 -5.5975 32.6537)" class="st2" width="249.2" height="11.6"/>
</g>
<path class="st4" d="M238.1,15.8l-34.5,27.9l-9.2,7.4l-4.9,4l-5.6,4.5l-20.5,16.5L151,86.3l-4.9,4l-9.1,7.3l-5.4,4.3l-2.3,1.9
	l-4.9,4l-16.8,13.6l-7.8,6.3l-14,11.3l-4.9,4l-7.6,6.1l-5.3,4.3l-3.9,3.1l-4.9,4L42.5,174l-10.9,8.8L7.1,90.7
	c-2.2-8.4,2.8-17.1,11.2-19.3l210.2-56C231.8,14.4,235.2,14.7,238.1,15.8z"/>
<circle class="st5" cx="314.9" cy="77.2" r="30"/>
<path class="st2" d="M327.9,104.5l7.2-4.8l11.3,17c1.3,2,0.8,4.7-1.2,6l0,0c-2,1.3-4.7,0.8-6-1.2L327.9,104.5L327.9,104.5z"/>
</svg>
