<?xml version="1.0" encoding="utf-8"?>
<!-- Generator: Adobe Illustrator 27.2.0, SVG Export Plug-In . SVG Version: 6.00 Build 0)  -->
<svg version="1.1" id="Layer_1" xmlns="http://www.w3.org/2000/svg" xmlns:xlink="http://www.w3.org/1999/xlink" x="0px" y="0px"
	 viewBox="0 0 173.13 166.11" style="enable-background:new 0 0 173.13 166.11;" xml:space="preserve">
<style type="text/css">
	.st0{fill:#F59900;}
	.st1{fill:#FFFFFF;}
	.st2{fill:#CED2D5;}
	.st3{fill:#FAC93E;}
	.st4{fill:#F59C00;}
</style>
<g>
	<polygon class="st0" points="173.13,43.72 86.56,0 0,43.72 0,43.72 0,166.11 173.13,166.11 173.13,43.72 	"/>
	<g>
		<rect x="9.39" y="19" class="st1" width="149.77" height="126.94"/>
		<rect x="24.45" y="31.04" class="st2" width="45.66" height="5.48"/>
		<rect x="24.45" y="43.13" class="st2" width="122.09" height="5.48"/>
		<rect x="24.45" y="55.23" class="st2" width="122.09" height="5.48"/>
		<rect x="24.45" y="67.35" class="st2" width="122.09" height="5.48"/>
		<rect x="24.45" y="79.46" class="st2" width="122.09" height="5.48"/>
		<rect x="24.45" y="91.58" class="st2" width="122.09" height="5.48"/>
	</g>
	<polygon class="st3" points="86.56,104.92 0,43.72 0,166.11 	"/>
	<polygon class="st3" points="86.56,104.92 173.13,166.11 173.13,43.72 	"/>
	<polygon class="st4" points="86.56,92.15 0,166.11 173.13,166.11 	"/>
</g>
</svg>
