<?xml version="1.0" encoding="utf-8"?>
<!-- Generator: Adobe Illustrator 27.2.0, SVG Export Plug-In . SVG Version: 6.00 Build 0)  -->
<svg version="1.1" id="Group_1282" xmlns="http://www.w3.org/2000/svg" xmlns:xlink="http://www.w3.org/1999/xlink" x="0px" y="0px"
	 viewBox="0 0 64.8 64.8" style="enable-background:new 0 0 64.8 64.8;" xml:space="preserve">
<style type="text/css">
	.st0{fill:#0A66C2;}
</style>
<path id="Path_2520" class="st0" d="M55.2,55.2h-9.6v-15c0-3.6-0.1-8.2-5-8.2c-5,0-5.8,3.9-5.8,7.9v15.3h-9.6V24.3h9.2v4.2h0.1
	c1.9-3.2,5.4-5.1,9.1-5c9.7,0,11.5,6.4,11.5,14.7L55.2,55.2z M14.4,20.1c-3.1,0-5.6-2.5-5.6-5.6s2.5-5.6,5.6-5.6
	c3.1,0,5.6,2.5,5.6,5.6S17.5,20.1,14.4,20.1L14.4,20.1 M19.2,55.2H9.6V24.3h9.6V55.2z M60,0H4.8C2.2,0,0,2.1,0,4.7v55.4
	c0,2.6,2.2,4.7,4.8,4.7H60c2.6,0,4.8-2.1,4.8-4.7V4.7C64.8,2.1,62.6,0,60,0"/>
</svg>
