<?xml version="1.0" encoding="utf-8"?>
<!-- Generator: Adobe Illustrator 27.2.0, SVG Export Plug-In . SVG Version: 6.00 Build 0)  -->
<svg version="1.1" xmlns="http://www.w3.org/2000/svg" xmlns:xlink="http://www.w3.org/1999/xlink" x="0px" y="0px"
	 viewBox="0 0 1004.63 1004.63" style="enable-background:new 0 0 1004.63 1004.63;" xml:space="preserve">
<style type="text/css">
	.st0{fill:#C8E6D5;}
	.st1{fill:#F79844;}
	.st2{fill:#E46D25;}
	.st3{fill:#F9B6A1;}
	.st4{fill:#BA6D6B;}
	.st5{fill:#73453E;}
	.st6{fill:#FFFFFF;}
	.st7{fill:#515146;}
	.st8{fill:#8E6641;}
</style>
<g id="BG">
	<circle class="st0" cx="502.31" cy="502.31" r="502.31"/>
</g>
<g id="Sweater">
	<path class="st1" d="M502.31,1004.57c128.76,0,246.19-48.45,335.08-128.12c-10.76-82.18-41.38-127.04-41.38-127.04l-98.08-59.81
		c4-20.98,8.71-63.57-14.15-102.19c-35.7-60.32-113.34-68.24-161.69-73.18c-79.19-8.08-143.96,14.64-181.72,32.19
		c-51.29,23.96-80.72,68.99-74.56,109.17c1.29,8.42,5.53,25.72,23.08,43.84c0,0-88.33,37.46-129.25,63.66
		c-18.98,12.15-31.45,39.03-39.41,65.22C212.35,936.18,349.34,1004.57,502.31,1004.57z"/>
</g>
<g id="SweaterS">
	<g>
		<path class="st2" d="M443.46,651.83c0.05,0,0.1,0,0.15,0c2.14,0,3.91-1.69,3.99-3.85c0.08-2.21-1.64-4.06-3.85-4.15
			c-26.33-1-49.17-15-58.18-35.66c-5.79-13.29-4.76-26.33-2.88-34.93c0.47-2.16-0.89-4.29-3.05-4.76c-2.16-0.47-4.29,0.89-4.76,3.05
			c-2.14,9.75-3.3,24.58,3.36,39.84C388.47,634.83,414.07,650.71,443.46,651.83z"/>
		<path class="st2" d="M448.73,670.62c1.48,0,2.91-0.83,3.6-2.25c0.97-1.99,0.14-4.38-1.85-5.35c-18.32-8.9-38.58-13.66-58.57-13.74
			c-13.18-0.08-26.31,1.85-39.05,5.67c-2.12,0.63-3.32,2.86-2.68,4.98c0.63,2.12,2.87,3.31,4.98,2.68
			c11.81-3.54,23.97-5.33,36.18-5.33c0.18,0,0.36,0,0.54,0c18.8,0.08,37.86,4.56,55.11,12.94
			C447.55,670.49,448.14,670.62,448.73,670.62z"/>
		<path class="st2" d="M536.67,745.36c22.05-0.13,44.15-3.29,65.68-9.38c2.12-0.6,3.36-2.81,2.76-4.94
			c-0.6-2.12-2.81-3.36-4.94-2.76c-20.83,5.9-42.21,8.95-63.54,9.08c-0.46,0-0.92,0-1.38,0c-56.48,0-101.7-20.44-129.77-37.66
			c-1.88-1.16-4.35-0.57-5.5,1.32s-0.57,4.35,1.32,5.5c28.95,17.76,75.61,38.84,133.96,38.84
			C535.71,745.36,536.19,745.36,536.67,745.36z"/>
		<path class="st2" d="M607.8,742.82c-0.72-2.09-3-3.2-5.08-2.48c-20.35,7-41.46,11.59-62.77,13.65
			c-31.79,3.06-63.77,0.53-95.05-7.53c-2.14-0.56-4.32,0.74-4.87,2.88c-0.55,2.14,0.74,4.32,2.88,4.87
			c23.37,6.02,47.11,9.04,70.89,9.04c8.98,0,17.96-0.43,26.93-1.29c21.93-2.11,43.66-6.84,64.6-14.04
			C607.41,747.19,608.52,744.91,607.8,742.82z"/>
	</g>
</g>
<g id="Neck">
	<g>
		<path class="st3" d="M579.57,637.38c-73.76-16.53-110.91-46.84-129.39-70.7c-0.96,5.34-1.97,10.72-3.04,16.16
			c-7.31,37.05-16.21,70.79-25.62,100.94c11.86,10.39,34.69,27.53,68.02,36.37c46.74,12.39,85.61,0.89,100.72-4.48
			C585.27,694.83,580.7,668.28,579.57,637.38z"/>
		<path class="st4" d="M579.43,612.34c1.36-51.09,12.35-92.83,22.53-121.76l-139.11-24.68c-2.24,30.74-6.16,64.53-12.67,100.8
			c18.48,23.85,55.62,54.16,129.39,70.7C579.27,629.32,579.2,620.97,579.43,612.34z"/>
	</g>
</g>
<g id="Face">
	<path class="st3" d="M401.69,489.39c2.92,11.14,8.64,28,20.53,45.6c27.19,40.23,66.79,55.19,85.87,62.09
		c14.7,5.31,56.22,20.33,94.21,10.14c108.05-28.97,149.81-251.57,92.31-354.42c-9.64-17.24-20.14-27.67-25.44-32.51
		c-44.43-40.53-113.47-43.47-161.33-27.84c-67.63,22.08-116.78,88.99-124.92,169.36L401.69,489.39z"/>
</g>
<g id="Eyes">
	<g>
		<ellipse class="st5" cx="507.42" cy="416.23" rx="12.62" ry="20.25"/>
		<ellipse class="st5" cx="653.67" cy="416.23" rx="12.62" ry="20.25"/>
	</g>
</g>
<g id="Nose">
	<g>
		<path class="st4" d="M591.79,506.23c-2.04,0-3.76-1.58-3.9-3.65c-0.15-2.15,1.48-4.02,3.64-4.17c14.63-0.99,17.67-4.8,18.3-6.39
			c1.08-2.73-1.44-6.98-4.37-11.89c-0.76-1.27-1.54-2.59-2.31-3.95c-6.97-12.37-11.5-26.61-13.45-42.33
			c-0.27-2.14,1.26-4.1,3.4-4.37c2.12-0.26,4.1,1.25,4.36,3.4c1.83,14.7,6.04,27.97,12.51,39.45c0.74,1.31,1.49,2.57,2.22,3.79
			c3.82,6.41,7.43,12.46,4.92,18.77c-2.63,6.65-10.83,10.35-25.05,11.31C591.97,506.23,591.88,506.23,591.79,506.23z"/>
	</g>
</g>
<g id="Mouth">
	<g>
		<g>
			<path class="st4" d="M591.17,554.07c-31.8,0-49.69-16.54-50.62-17.42c-1.57-1.49-1.63-3.96-0.15-5.53
				c1.49-1.57,3.96-1.63,5.52-0.15c1.09,1.02,26.46,24.15,71.22,11.51c2.08-0.58,4.24,0.62,4.83,2.7c0.59,2.08-0.62,4.24-2.7,4.83
				C608.97,552.92,599.58,554.07,591.17,554.07z"/>
		</g>
		<g>
			<path class="st4" d="M581.66,573.37c-11.15,0-18.14-4.84-18.5-5.09c-1.76-1.25-2.18-3.69-0.93-5.45
				c1.24-1.76,3.68-2.18,5.44-0.94c0.4,0.27,8.41,5.61,20.87,2.91c2.12-0.45,4.2,0.88,4.65,3c0.46,2.11-0.89,4.2-3,4.65
				C587.14,573.1,584.29,573.37,581.66,573.37z"/>
		</g>
	</g>
</g>
<g id="Eyebrows">
	<g>
		<path class="st5" d="M638.65,367.13c1.57,2.16,12.33,0.81,20.91,0c10.62-1.02,24.13,0.73,24.13-2.21
			c0-2.96-7.87-17.19-28.49-14.51C640.21,352.34,635.9,363.31,638.65,367.13L638.65,367.13z"/>
		<path class="st5" d="M537.5,367.13c-1.85,2.16-14.55,0.81-24.6,0c-12.52-1.02-28.45,0.73-28.45-2.21
			c0-2.96,9.29-17.19,33.52-14.51C535.7,352.34,540.73,363.31,537.5,367.13L537.5,367.13z"/>
	</g>
</g>
<g id="Ropes">
	<g>
		<path class="st6" d="M396.72,742.03c-2.76-0.16-5.11,1.97-5.25,4.73l-9.19,176.08c-0.14,2.76,1.97,5.11,4.73,5.25
			c0.09,0,0.18,0.01,0.26,0.01c2.64,0,4.85-2.07,4.99-4.74l9.19-176.08C401.6,744.52,399.48,742.17,396.72,742.03z"/>
		<path class="st6" d="M635.51,727.47c-0.12-2.76-2.47-4.89-5.22-4.77c-2.76,0.12-4.9,2.46-4.77,5.22l7.81,175.17
			c0.12,2.68,2.33,4.78,4.99,4.78c0.08,0,0.15,0,0.23,0c2.76-0.12,4.9-2.46,4.77-5.22L635.51,727.47z"/>
	</g>
</g>
<g id="Glasses">
	<path class="st7" d="M674.07,369.94c-22.06-0.23-41.15,13.93-49.2,34.25c-14.54-4.8-30.44-4.51-44.93,0.9
		c-7.95-21.18-27.89-36.41-51.37-36.66c-29.31-0.3-53.64,22.82-56,52.45c-16.1-5.37-72.89-23.17-94.51-14.97l2.5,6.54
		c17.98-6.83,70.54,8.36,91.86,15.63c1.29,30.68,26.1,54.98,56.14,54.67c30.51-0.32,55.08-25.95,55.08-57.15
		c0-4.85-0.59-9.57-1.71-14.07c13-4.89,27.71-5.21,40.84-1c-1.28,4.8-1.98,9.84-1.98,15.07c0,30.99,24.03,55.95,53.27,55.65
		c28.93-0.3,52.23-25.26,52.23-55.65C726.3,395.21,702.99,370.24,674.07,369.94z M528.56,475.94
		c-27.16,0.25-49.45-22.33-49.45-50.34c0-28.01,22.29-50.59,49.45-50.34c26.89,0.25,48.58,22.83,48.58,50.34
		C577.14,453.11,555.46,475.69,528.56,475.94z M674.07,474.61c-25.74,0.23-46.87-21.75-46.87-49.02c0-27.26,21.12-49.25,46.87-49.02
		c25.5,0.23,46.06,22.22,46.06,49.02C720.13,452.39,699.56,474.38,674.07,474.61z"/>
</g>
<g id="HairLeft">
	<path class="st8" d="M474.91,289.01c-2.99,39.8-20.63,55.98-33.1,63.34c-12.4,7.36-22.27,13.53-23.31,27.3l-3.66,48.73
		c-0.4,5.39-3.98,9.45-7.98,7.69c-4-1.74-19.25-10.99-18.66-18.87l-46.01-37.99c0,0-15.56-35.61-6.37-96.58
		c9.19-60.97,58.25-87.83,58.25-87.83S466.88,211.22,474.91,289.01z"/>
</g>
<g id="Ear">
	<g>
		<path class="st3" d="M401.69,489.39c-9.32-1.7-29.28-6.74-44.47-23.69c-26.3-29.35-27.6-82.59-4.01-98.63
			c8.34-5.67,18.84-6.04,28.47-4.46c1.39,0.3,3.42,0.91,5.54,2.23c13.48,8.41,9.54,33.56,9.97,58.96
			C397.45,439.54,398.42,461.95,401.69,489.39z"/>
		<path class="st4" d="M397.16,422c-5.71-3.4-9.8-7.54-12.21-12.36c-2.24-4.48-2.81-9.09-3.32-13.15
			c-0.72-5.71-1.39-11.1-6.51-13.95c-5.55-3.09-11.65-0.33-12.82,0.26c-7.71,3.87-11.25,14.54-8.43,25.4
			c0.45,1.72,2.2,2.75,3.93,2.3c1.72-0.45,2.75-2.21,2.3-3.93c-2.03-7.8,0.15-15.55,5.08-18.02c0.16-0.08,3.98-1.96,6.8-0.39
			c2.16,1.2,2.62,4.1,3.26,9.13c0.55,4.35,1.23,9.76,3.95,15.22c2.42,4.85,6.17,9.07,11.14,12.66c-4.41,1.33-8.98,3.6-12.73,7.5
			c-2.45,2.56-3.98,5.21-4.54,7.87c-1.31,6.27,2.1,11.49,3.63,13.44c0.64,0.81,1.58,1.23,2.54,1.23c0.69,0,1.39-0.22,1.98-0.68
			c1.4-1.1,1.65-3.12,0.55-4.52c-0.97-1.24-3.15-4.52-2.39-8.15c0.3-1.45,1.3-3.08,2.88-4.73c4.44-4.63,10.73-6.31,15.08-6.92
			L397.16,422z"/>
	</g>
</g>
<g id="HairTop">
	<path class="st8" d="M474.91,289.01c16.28,13.72,37.7,29.07,64.62,42.41c52.35,25.93,100.99,32.14,131.92,33.4
		c1.97-4.78,4.84-13.64,4.05-24.86c-0.54-7.63-2.58-13.74-4.34-17.83c8.4,5.64,21.43,12.99,38.67,17.76
		c18.13,5.01,33.79,5.2,44.13,4.52c0.12-30.28-11.75-69.03-23.03-82.12c0,0,28.39-13.02,40.48-30.16
		c-24.78-44.4-87.43-83.72-122.53-91.77c0,0,19.53-15.48,25.79-31.23c-36.34-15.72-140.98-14.91-174.07,10.73
		c0,0,4.51-19.5,2.82-37.48c-69.61,19.11-105.93,78.04-109.34,112.41"/>
</g>
</svg>
