<svg xmlns="http://www.w3.org/2000/svg" viewBox="0 0 1000 1000"><defs><style>.uuid-0894fe65-5e07-485b-9f55-151967c59c6c{fill:#fff}.uuid-1b224327-1085-4d5f-8acb-26370e6fd4d5{fill:#73453e}.uuid-4b107e85-52b5-48a9-9b70-6d681ab239c4{fill:#ba6d6b}.uuid-acaa2c76-7b27-4aee-87a6-fb85c0f136bf{fill:#f9b6a1}.uuid-7943e48f-d04f-43b7-93a4-c0b4299084d1{fill:#8e6641}.uuid-2cbb1cad-14b8-48af-98e2-b61c467405db{fill:#e46d25}</style></defs><path id="uuid-1fae2cf9-3107-4669-9d88-338bd1f888cc" d="M0 0h1000v1000H0z" data-name="BG" style="fill:#c8e6d5"/><g id="uuid-1a9cf2b5-6214-4da6-904a-9e97f5d1f6c1" data-name="Sweater"><path d="M834 872c-11-81-42-126-42-126l-97-60c4-20 8-63-14-101-36-60-113-68-161-73-79-8-144 14-181 32-51 24-81 69-74 109 1 8 5 25 23 43 0 0-88 37-129 64-19 12-31 38-39 64 0 0-15 100-20 176h742s2-9-8-128Z" style="fill:#f79844"/><g id="uuid-dcf642f4-4823-4f2e-9823-5ef7da12bd24" data-name="SweaterS"><path d="M441 649h1a4 4 0 0 0 0-8c-26-1-49-15-58-36-6-13-5-26-3-34a4 4 0 1 0-8-2c-2 10-3 24 4 40 10 23 35 39 64 40ZM447 668a4 4 0 0 0 1-8 136 136 0 0 0-97-8 4 4 0 1 0 3 8c11-4 23-6 36-6a128 128 0 0 1 57 14ZM534 742c22 0 44-3 66-9a4 4 0 0 0-3-8c-20 6-42 9-63 9h-1c-56 0-101-20-129-38a4 4 0 0 0-5 7c29 18 76 39 134 39h1Z" class="uuid-2cbb1cad-14b8-48af-98e2-b61c467405db"/><path d="M605 739c-1-2-3-3-5-2a272 272 0 0 1-157 6 4 4 0 1 0-2 8 283 283 0 0 0 162-7c2 0 3-3 2-5Z" class="uuid-2cbb1cad-14b8-48af-98e2-b61c467405db"/></g></g><g id="uuid-6c9b0c22-0bb7-4bc8-8965-5250dc6d19b4" data-name="Neck"><path d="M577 634c-74-16-110-46-129-70a916 916 0 0 1-28 117 169 169 0 0 0 168 31c-5-20-10-47-11-78Z" class="uuid-acaa2c76-7b27-4aee-87a6-fb85c0f136bf"/><path d="M577 610c1-51 12-93 22-122l-138-24c-3 30-6 64-13 100 19 24 55 54 129 70v-24Z" class="uuid-4b107e85-52b5-48a9-9b70-6d681ab239c4"/></g><path id="uuid-b40c9d6b-b631-4d21-a786-58fb4ccb2046" d="M400 487c3 11 8 28 20 46 27 40 67 54 86 61 14 6 56 21 94 10 107-28 149-250 91-352-9-18-20-28-25-33-44-40-113-43-161-27-67 22-116 88-124 168l19 127Z" class="uuid-acaa2c76-7b27-4aee-87a6-fb85c0f136bf" data-name="Face"/><g id="uuid-28533b4b-4b46-47f3-a014-fe44eda95696" data-name="Eyes"><ellipse cx="505.1" cy="414.3" class="uuid-1b224327-1085-4d5f-8acb-26370e6fd4d5" rx="12.6" ry="20.2"/><ellipse cx="650.7" cy="414.3" class="uuid-1b224327-1085-4d5f-8acb-26370e6fd4d5" rx="12.6" ry="20.2"/></g><path id="uuid-b65c9f9a-3b28-4917-8014-c2ecf0fcad80" d="M589 504a4 4 0 0 1 0-8c14-1 17-5 18-6 1-3-1-7-4-12l-3-4c-7-12-11-26-13-42 0-2 1-4 3-4 2-1 4 1 5 3a106 106 0 0 0 14 43c4 6 8 12 5 19-2 6-11 10-25 11Z" class="uuid-4b107e85-52b5-48a9-9b70-6d681ab239c4" data-name="Nose"/><g id="uuid-a1fc628d-ca35-42ff-8465-1000d4d047c6" data-name="Mouth"><path d="M588 552c-31 0-49-17-50-18a4 4 0 1 1 5-5c2 1 27 24 71 11a4 4 0 0 1 2 7c-10 3-19 5-28 5ZM579 571c-11 0-18-5-18-5a4 4 0 0 1 4-7c0 1 8 6 21 3a4 4 0 1 1 1 8l-8 1Z" class="uuid-4b107e85-52b5-48a9-9b70-6d681ab239c4"/></g><g id="uuid-fb0df0ef-9974-445d-aa01-ddf7e6bed1e2" data-name="Eyebrows"><path d="M636 365c1 3 12 1 21 0 10-1 24 1 24-2s-8-17-29-14c-15 2-19 13-16 16ZM535 365c-2 3-14 1-24 0-13-1-29 1-29-2s9-17 34-14c17 2 22 13 19 16Z" class="uuid-1b224327-1085-4d5f-8acb-26370e6fd4d5"/></g><g id="uuid-657e29bd-3f9f-426e-9591-ef1b1468e2ec" data-name="Ropes"><path d="M395 739c-3-1-5 2-5 4l-9 176c-1 2 1 5 4 5s5-2 5-5l10-175c0-3-2-5-5-5ZM633 724a5 5 0 0 0-10 1l7 174c1 3 3 5 5 5h1c2 0 4-3 4-6l-7-174Z" class="uuid-0894fe65-5e07-485b-9f55-151967c59c6c"/></g><path id="uuid-6592efee-9385-4142-9238-418ab495b058" d="M473 288c-3 39-21 55-33 63-13 7-22 13-23 27l-4 48c0 6-4 10-8 8s-19-11-19-19l-45-38s-16-35-7-96c9-60 58-87 58-87 5-3 23-14 47-9 3 0 35 7 47 38 8 22 3 47-13 65Z" class="uuid-7943e48f-d04f-43b7-93a4-c0b4299084d1" data-name="HairLeft"/><path id="uuid-600a6387-f15a-4d1d-8ecc-1f914d66592c" d="M671 368c-22 0-41 14-49 34-14-4-30-4-45 1-8-21-28-36-51-36-29-1-53 22-56 52-16-5-72-23-94-15l3 7c18-7 70 8 91 15 2 31 26 55 56 55a56 56 0 0 0 53-71c13-5 28-6 41-1l-2 15c0 31 24 55 53 55s52-25 52-55-23-55-52-56ZM526 474c-27 0-49-22-49-50s22-51 49-50c27 0 48 22 48 50s-21 49-48 50Zm145-2c-26 1-47-21-47-48s21-49 47-49c25 0 46 22 46 49s-21 48-46 48Z" data-name="Glasses" style="fill:#515146"/><g id="uuid-65a8b9b3-8e4d-4adb-8cd2-ac8150bf7522" data-name="Ear"><path d="M400 487c-9-2-29-7-44-23-27-30-28-83-4-99 8-5 18-6 28-4l5 2c14 9 10 34 10 59l5 65Z" class="uuid-acaa2c76-7b27-4aee-87a6-fb85c0f136bf"/><path d="M395 420c-5-3-9-7-12-12l-3-13c-1-6-2-11-7-14s-11-1-12 0c-8 4-12 15-9 25a3 3 0 1 0 6-1c-2-8 1-16 6-18 0 0 3-2 6-1 2 2 3 4 4 9l3 16c3 4 7 9 12 12-5 2-9 4-13 8-3 2-4 5-5 8-1 6 2 11 4 13a3 3 0 0 0 4 0c2-1 2-3 1-4s-3-5-2-8l2-5c5-4 11-6 16-7l-1-8Z" class="uuid-4b107e85-52b5-48a9-9b70-6d681ab239c4"/></g><path id="uuid-fea0b188-96a3-49ea-8b10-a26c0084b277" d="M392 194c4-34 40-93 109-112 2 18-3 37-3 37 33-25 137-26 174-10-7 15-26 31-26 31 35 8 97 47 122 91-12 17-40 30-40 30 11 13 23 52 23 82a133 133 0 0 1-83-22 55 55 0 0 1 0 42 326 326 0 0 1-195-75s-89-7-81-94Z" class="uuid-7943e48f-d04f-43b7-93a4-c0b4299084d1" data-name="HairTop"/></svg>