<?xml version="1.0" encoding="UTF-8"?>
<svg id="uuid-7afd9271-0b30-4137-8093-464365025da6" data-name="Layer 1" xmlns="http://www.w3.org/2000/svg" xmlns:xlink="http://www.w3.org/1999/xlink" viewBox="0 0 1004.63 1043.72">
  <defs>
    <style>
      .uuid-df5ae5bf-82b5-44ec-b773-d7ac540d8b4a {
        fill: #8f6641;
      }

      .uuid-3c1bddbf-45c0-4895-8218-401f8060a72b {
        fill: #ba6d6b;
      }

      .uuid-47ea0823-019f-4a93-af1d-e608a48afcfb {
        fill: #fab7a2;
      }

      .uuid-10270fce-ccd3-485a-80e9-9bcb9ab41b73 {
        clip-path: url(#uuid-34dd9cec-64bd-40e2-9f5e-ae06c46c514c);
      }

      .uuid-74089264-43ea-4783-a237-72dcdda3db69 {
        stroke: #fff;
        stroke-width: 10px;
      }

      .uuid-74089264-43ea-4783-a237-72dcdda3db69, .uuid-5eae1f28-b9ad-4789-a866-b24cbb425759, .uuid-287357cd-5c7b-4a20-bdb3-115fa19862cb {
        fill: none;
      }

      .uuid-74089264-43ea-4783-a237-72dcdda3db69, .uuid-287357cd-5c7b-4a20-bdb3-115fa19862cb {
        stroke-linecap: round;
        stroke-miterlimit: 10;
      }

      .uuid-3c774d8f-8924-4051-9168-e3df222f51a5 {
        fill: #c9e6d5;
      }

      .uuid-4bcdee35-ff60-4536-9d75-9d8407874f58 {
        fill: #f89944;
      }

      .uuid-b870a463-4b12-40b9-a127-766f946afa74 {
        fill: #515246;
      }

      .uuid-287357cd-5c7b-4a20-bdb3-115fa19862cb {
        stroke: #e56d25;
        stroke-width: 8px;
      }

      .uuid-41d13043-66ae-4e39-b8e8-631fc9845005 {
        fill: #72453e;
      }
    </style>
    <clipPath id="uuid-34dd9cec-64bd-40e2-9f5e-ae06c46c514c">
      <circle class="uuid-5eae1f28-b9ad-4789-a866-b24cbb425759" cx="502.31" cy="502.31" r="502.31"/>
    </clipPath>
  </defs>
  <circle class="uuid-3c774d8f-8924-4051-9168-e3df222f51a5" cx="502.31" cy="502.31" r="502.31"/>
  <g class="uuid-10270fce-ccd3-485a-80e9-9bcb9ab41b73">
    <g>
      <path class="uuid-4bcdee35-ff60-4536-9d75-9d8407874f58" d="m107.59,893.04c0-4.63,10.16-103.13,52.04-129.94,40.93-26.2,129.25-63.66,129.25-63.66-17.54-18.12-21.79-35.42-23.08-43.84-6.16-40.19,23.27-85.22,74.56-109.17,37.76-17.55,102.54-40.27,181.72-32.19,48.35,4.94,126,12.86,161.69,73.18,22.86,38.62,18.15,81.21,14.15,102.19l98.08,59.81s34.03,49.86,42.95,140.75c-21.69,21.28-52.33,106.03-101.07,128.73-26.12,12.17-85.77,14.24-157.17,23.41-52.9,6.79-180.93-11.46-316.27-37.67-50.27-9.73-79.79-77.09-156.86-111.59Z"/>
      <path class="uuid-287357cd-5c7b-4a20-bdb3-115fa19862cb" d="m443.61,647.83c-27.86-1.06-51.95-15.71-61.7-38.06-6.77-15.54-4.66-30.32-3.12-37.38"/>
      <path class="uuid-287357cd-5c7b-4a20-bdb3-115fa19862cb" d="m448.73,666.62c-11.2-5.44-31.13-13.23-56.84-13.34-15.49-.07-28.45,2.67-37.89,5.5"/>
      <path class="uuid-287357cd-5c7b-4a20-bdb3-115fa19862cb" d="m403.37,703.11c23.27,14.28,70.66,38.61,133.27,38.25,25.43-.15,47.34-4.34,64.61-9.23"/>
      <path class="uuid-287357cd-5c7b-4a20-bdb3-115fa19862cb" d="m443.9,750.33c22.57,5.82,56.16,11.52,96.43,7.64,25.39-2.45,46.91-8.07,63.69-13.84"/>
      <path class="uuid-47ea0823-019f-4a93-af1d-e608a48afcfb" d="m579.57,637.38c-73.76-16.53-110.91-46.84-129.39-70.7-.96,5.34-1.97,10.72-3.04,16.16-7.31,37.05-16.21,70.79-25.62,100.94,11.86,10.39,34.69,27.53,68.02,36.37,46.74,12.39,85.61.89,100.72-4.48-4.99-20.84-9.56-47.39-10.69-78.29Z"/>
      <path class="uuid-41d13043-66ae-4e39-b8e8-631fc9845005" d="m579.43,612.34c1.36-51.09,12.35-92.83,22.53-121.76l-139.11-24.68c-2.24,30.74-6.16,64.53-12.67,100.8,18.48,23.85,55.62,54.16,129.39,70.7-.3-8.06-.37-16.41-.14-25.05Z"/>
      <path class="uuid-47ea0823-019f-4a93-af1d-e608a48afcfb" d="m401.69,489.39c2.92,11.14,8.64,28,20.53,45.6,27.19,40.23,66.79,55.19,85.87,62.09,14.7,5.31,56.22,20.33,94.21,10.14,108.05-28.97,149.81-251.57,92.31-354.42-9.64-17.24-20.14-27.67-25.44-32.51-44.43-40.53-113.47-43.47-161.33-27.84-67.63,22.08-116.78,88.99-124.92,169.36l18.77,127.6Z"/>
      <path class="uuid-41d13043-66ae-4e39-b8e8-631fc9845005" d="m638.65,367.13c1.57,2.16,12.33.81,20.91,0,10.62-1.02,24.13.73,24.13-2.21s-7.87-17.19-28.49-14.51c-14.98,1.92-19.3,12.89-16.55,16.71h0Z"/>
      <path class="uuid-df5ae5bf-82b5-44ec-b773-d7ac540d8b4a" d="m671.17,322.13c1.76,4.09,3.81,10.2,4.34,17.83.79,11.21-2.09,20.07-4.05,24.86-30.94-1.26-79.57-7.47-131.92-33.4-26.92-13.34-48.34-28.68-64.62-42.41-2.99,39.8-20.63,55.98-33.1,63.34-12.4,7.36-22.27,13.53-23.31,27.3l-3.66,48.73c-.4,5.39-3.98,9.45-7.98,7.69-4-1.74-19.25-10.99-18.66-18.87l-46.01-37.99s-15.56-35.61-6.37-96.58c9.19-60.97,58.25-87.83,58.25-87.83,3.41-34.37,39.73-93.31,109.34-112.41,1.7,17.98-2.82,37.48-2.82,37.48,33.09-25.65,137.73-26.46,174.07-10.73-6.27,15.75-25.79,31.23-25.79,31.23,35.1,8.05,97.75,47.37,122.53,91.77-12.09,17.14-40.48,30.16-40.48,30.16,11.28,13.09,23.14,51.84,23.03,82.12-10.34.68-26,.49-44.13-4.52-17.25-4.77-30.27-12.12-38.67-17.76Z"/>
      <ellipse class="uuid-41d13043-66ae-4e39-b8e8-631fc9845005" cx="507.42" cy="416.23" rx="12.62" ry="20.25"/>
      <ellipse class="uuid-41d13043-66ae-4e39-b8e8-631fc9845005" cx="653.67" cy="416.23" rx="12.62" ry="20.25"/>
      <path class="uuid-3c1bddbf-45c0-4895-8218-401f8060a72b" d="m591.17,554.07c-31.8,0-49.69-16.54-50.62-17.42-1.57-1.49-1.63-3.96-.15-5.53,1.49-1.57,3.96-1.63,5.52-.15,1.09,1.02,26.46,24.15,71.22,11.51,2.08-.58,4.24.62,4.83,2.7.59,2.08-.62,4.24-2.7,4.83-10.3,2.91-19.69,4.07-28.1,4.07Z"/>
      <path class="uuid-3c1bddbf-45c0-4895-8218-401f8060a72b" d="m591.79,506.23c-2.04,0-3.76-1.58-3.9-3.65-.15-2.15,1.48-4.02,3.64-4.17,14.63-.99,17.67-4.8,18.3-6.39,1.08-2.73-1.44-6.98-4.37-11.89-.76-1.27-1.54-2.59-2.31-3.95-6.97-12.37-11.5-26.61-13.45-42.33-.27-2.14,1.26-4.1,3.4-4.37,2.12-.26,4.1,1.25,4.37,3.4,1.83,14.7,6.04,27.97,12.51,39.45.74,1.31,1.49,2.57,2.22,3.79,3.82,6.41,7.43,12.46,4.92,18.77-2.63,6.65-10.83,10.35-25.05,11.31-.09,0-.18,0-.27,0Z"/>
      <path class="uuid-b870a463-4b12-40b9-a127-766f946afa74" d="m671.19,370.49c-22.95,0-42.67,14.11-50.94,34.11-14.87-4.64-31.06-4.28-45.72,1.05-8.01-20.55-28-35.16-51.36-35.16-28.87,0-52.61,22.32-54.91,50.61-15.58-5.1-69.84-21.78-90.21-13.98l2.35,6.13c16.95-6.48,67.11,7.79,87.72,14.71,1.25,29.29,25.46,52.74,55.05,52.74s55.11-24.72,55.11-55.11c0-4.73-.6-9.32-1.72-13.7,13.16-4.8,28.13-5.17,41.55-1.08-1.31,4.71-2.03,9.66-2.03,14.78,0,30.39,24.72,55.11,55.11,55.11s55.11-24.72,55.11-55.11-24.72-55.11-55.11-55.11Zm-148.01,103.65c-26.77,0-48.54-21.77-48.54-48.54s21.78-48.54,48.54-48.54,48.54,21.77,48.54,48.54-21.78,48.54-48.54,48.54Zm148.01,0c-26.77,0-48.54-21.77-48.54-48.54s21.78-48.54,48.54-48.54,48.54,21.77,48.54,48.54-21.78,48.54-48.54,48.54Z"/>
      <path class="uuid-47ea0823-019f-4a93-af1d-e608a48afcfb" d="m401.69,489.39c-9.32-1.7-29.28-6.74-44.47-23.69-26.3-29.35-27.6-82.59-4.01-98.63,8.34-5.67,18.84-6.04,28.47-4.46,1.39.3,3.42.91,5.54,2.23,13.48,8.41,9.54,33.56,9.97,58.96.27,15.73,1.24,38.14,4.51,65.58Z"/>
      <path class="uuid-3c1bddbf-45c0-4895-8218-401f8060a72b" d="m397.16,422c-5.71-3.4-9.8-7.54-12.21-12.36-2.24-4.48-2.81-9.09-3.32-13.15-.72-5.71-1.39-11.1-6.51-13.95-5.55-3.09-11.65-.33-12.82.26-7.71,3.87-11.25,14.54-8.43,25.4.45,1.72,2.2,2.75,3.93,2.3,1.72-.45,2.75-2.21,2.3-3.93-2.03-7.8.15-15.55,5.08-18.02.16-.08,3.98-1.96,6.8-.39,2.16,1.2,2.62,4.1,3.26,9.13.55,4.35,1.23,9.76,3.95,15.22,2.42,4.85,6.17,9.07,11.14,12.66-4.41,1.33-8.98,3.6-12.73,7.5-2.45,2.56-3.98,5.21-4.54,7.87-1.31,6.27,2.1,11.49,3.63,13.44.64.81,1.58,1.23,2.54,1.23.69,0,1.39-.22,1.98-.68,1.4-1.1,1.65-3.12.55-4.52-.97-1.24-3.15-4.52-2.39-8.15.3-1.45,1.3-3.08,2.88-4.73,4.44-4.63,10.73-6.31,15.08-6.92l-.17-8.23Z"/>
      <path class="uuid-3c1bddbf-45c0-4895-8218-401f8060a72b" d="m581.66,573.37c-11.15,0-18.14-4.84-18.5-5.09-1.76-1.25-2.18-3.69-.93-5.45,1.24-1.76,3.68-2.18,5.44-.94.4.27,8.41,5.61,20.87,2.91,2.12-.45,4.2.88,4.65,3,.46,2.11-.89,4.2-3,4.65-3.05.66-5.91.93-8.54.93Z"/>
      <path class="uuid-41d13043-66ae-4e39-b8e8-631fc9845005" d="m537.5,367.13c-1.85,2.16-14.55.81-24.6,0-12.52-1.02-28.45.73-28.45-2.21s9.29-17.19,33.52-14.51c17.73,1.92,22.76,12.89,19.53,16.71h0Z"/>
      <line class="uuid-74089264-43ea-4783-a237-72dcdda3db69" x1="396.46" y1="747.02" x2="387.27" y2="923.1"/>
      <line class="uuid-74089264-43ea-4783-a237-72dcdda3db69" x1="630.51" y1="727.7" x2="638.32" y2="902.87"/>
    </g>
  </g>
</svg>