<?xml version="1.0" standalone="no"?>
<!DOCTYPE svg PUBLIC "-//W3C//DTD SVG 20010904//EN"
 "http://www.w3.org/TR/2001/REC-SVG-20010904/DTD/svg10.dtd">
<svg version="1.0" xmlns="http://www.w3.org/2000/svg"
 width="238.000000pt" height="238.000000pt" viewBox="0 0 238.000000 238.000000"
 preserveAspectRatio="xMidYMid meet">
<metadata>
Created by potrace 1.14, written by Peter Selinger 2001-2017
</metadata>
<g transform="translate(0.000000,238.000000) scale(0.100000,-0.100000)"
fill="#000000" stroke="none">
<path d="M277 2359 c-32 -11 -76 -31 -96 -44 -56 -35 -128 -122 -154 -185
l-22 -55 -2 -866 c-3 -940 -5 -910 52 -1011 23 -41 105 -128 120 -128 4 0 20
-9 36 -21 16 -11 29 -17 29 -13 0 3 6 1 13 -5 8 -6 31 -14 53 -18 70 -13 1744
-9 1790 5 63 19 159 86 198 139 20 26 46 73 58 103 l22 55 2 855 c1 626 -2
868 -11 905 -31 132 -129 239 -260 284 -59 20 -79 20 -915 20 -831 0 -857 0
-913 -20z m691 -804 c15 -18 22 -39 22 -67 0 -39 -6 -47 -127 -170 l-127 -128
127 -128 c121 -123 127 -131 127 -170 0 -69 -67 -118 -128 -93 -43 18 -350
331 -361 367 -6 21 -4 40 4 60 13 30 328 347 355 358 30 11 85 -3 108 -29z
m560 21 c15 -8 98 -86 186 -174 151 -152 158 -162 163 -205 l6 -46 -174 -174
c-185 -186 -210 -202 -266 -175 -35 16 -64 73 -56 110 3 18 50 72 131 153
l126 126 -121 122 c-128 129 -145 152 -138 185 14 76 79 111 143 78z"/>
</g>
</svg>
