<?xml version="1.0" standalone="no"?>
<!DOCTYPE svg PUBLIC "-//W3C//DTD SVG 20010904//EN"
 "http://www.w3.org/TR/2001/REC-SVG-20010904/DTD/svg10.dtd">
<svg version="1.0" xmlns="http://www.w3.org/2000/svg"
 width="700.000000pt" height="700.000000pt" viewBox="0 0 700.000000 700.000000"
 preserveAspectRatio="xMidYMid meet">
<metadata>
Created by potrace 1.14, written by Peter Selinger 2001-2017
</metadata>
<g transform="translate(0.000000,700.000000) scale(0.100000,-0.100000)"
fill="#000000" stroke="none">
<path d="M960 6980 c-242 -45 -444 -151 -616 -324 -160 -160 -279 -376 -319
-581 -3 -16 -9 -41 -13 -55 -3 -14 -8 -1130 -9 -2480 -2 -2686 -5 -2540 56
-2729 115 -350 390 -626 741 -744 70 -24 131 -37 240 -53 25 -3 1136 -6 2470
-6 2144 1 2435 3 2512 16 517 93 907 507 964 1026 3 30 6 1142 6 2470 0 1792
-3 2432 -12 2480 -6 36 -13 74 -15 85 -6 37 -37 136 -57 183 -139 329 -387
562 -716 672 -186 62 -34 59 -2702 58 -2295 0 -2440 -1 -2530 -18z m1786
-2329 c103 -46 167 -141 170 -254 5 -129 11 -120 -393 -527 l-363 -365 350
-350 c401 -401 410 -412 407 -538 -3 -115 -63 -209 -165 -259 -69 -33 -179
-32 -247 2 -37 19 -168 144 -522 497 -275 275 -480 488 -492 511 -43 84 -43
186 1 270 26 50 944 974 993 1000 82 43 182 48 261 13z m1746 -7 c36 -18 170
-146 520 -496 505 -505 513 -514 522 -623 4 -52 -15 -131 -42 -174 -8 -14
-225 -236 -481 -494 -526 -528 -519 -522 -651 -522 -62 0 -84 5 -126 27 -102
54 -166 163 -160 275 6 113 15 123 401 510 l356 357 -355 355 c-385 386 -396
401 -402 511 -11 220 222 373 418 274z"/>
</g>
</svg>
