<?xml version="1.0" encoding="UTF-8"?><svg id="uuid-b564770a-0a6e-4705-ae48-496a77088ed3" xmlns="http://www.w3.org/2000/svg" width="397.7989" height="528.6177" viewBox="0 0 397.7989 528.6177"><defs><style>.uuid-7ebf365e-67cf-4fbf-b90f-d0a3c47e13ee{fill:#3e3f34;}.uuid-172ef9bc-b088-468c-b74b-f6e8cd39c7e3{fill:#fff;}.uuid-686bc30e-1f08-45f0-9395-a4b8381f6153{fill:#f18380;}.uuid-b6e3522e-e062-45bb-9c9d-1e911f84fade{fill:#2943ac;}.uuid-61e46ecc-d941-465d-ba40-85e09dcf6e67{fill:#d65155;}.uuid-346cc095-37b7-4d2f-bf50-b2f554a203bb{fill:#21378c;}.uuid-0c4d0b97-fab2-4ca8-ad4f-e61fa66efa5d{fill:#4e6ad9;}.uuid-7d830331-c02d-4462-ba0b-035103995860{fill:#bc664a;}.uuid-0f9ec662-76ea-444e-acef-bff39008c093{fill:#403d4f;}.uuid-59d073da-d0da-4daf-9d6f-d29b6f79fc37{fill:#73102a;}.uuid-21aafd1e-9afd-4290-a73d-efb99afd86d8{fill:#7a4230;}.uuid-49c44cc7-da68-4255-b7d6-39c70c7f086f{fill:#b38b67;}.uuid-fd22e763-a6ed-4ce4-af20-51ce15e8621e{fill:#192a6b;}.uuid-eacbd809-2ff0-4944-94ad-4d4b3bb22871{fill:#fbbeaa;}</style></defs><g><path class="uuid-7d830331-c02d-4462-ba0b-035103995860" d="M282.6589,459.0377c.06,3.5801-.03,7.26-.25,11.02-.59,10.3301-1.53,32.3901-2.55,58.5601h-106.9901c-.64-18.78-1.19-35.8401-1.55-48.7-.24-8.9099-.38-15.8-.4-19.8401-.03-7.23,1.21-14.5898,3.69-21.5601,4.21-11.8198,11.97-22.48,23.1-29.3899,2.57-1.6001,5.31-2.99,8.23-4.1501,4.48-1.7898,9.38-3.02,14.69-3.5999,.65-.0701,1.3-.1301,1.96-.1799,3.87-.3,7.95-.25,12.23,.1899,6.2,.6399,11.67,1.8501,16.47,3.5898,13.37,4.8301,21.63,13.6702,26.29,25.1501,3.42,8.3999,4.91,18.22,5.08,28.9099Z"/><g><path class="uuid-7d830331-c02d-4462-ba0b-035103995860" d="M226.1489,477.1678c-.09,.6099-.19,1.22-.29,1.8298-.31,1.8701-.6801,4.1401-1.09,6.75-1.59,10.0601-3.87,25.2402-6.48,42.8701H110.4689c2.42-33.0701,4.58-61.3401,5.62-71.48,1.16-11.1899,5.42-22.3701,12.4-31.5601,7.84-10.29,19.1-18.0801,33.29-20.6001,6.3-1.1299,13.19-1.21,20.61,0,1.16,.1902,2.33,.4102,3.52,.6602,4.32,.9199,8.25,2.0898,11.8,3.49,8.38,3.3101,14.71,7.8999,19.35,13.53,11.1,13.46,12.48,32.8301,9.09,54.51Z"/><path class="uuid-21aafd1e-9afd-4290-a73d-efb99afd86d8" d="M227.6789,479.2977c-.3,1.79-.64,3.95-1.04,6.4299-1.57,9.98-3.86,25.1902-6.48,42.8901h-3.74c2.61-17.6001,4.89-32.78,6.48-42.8799,.44-2.7402,.82-5.1101,1.14-7.05,.17-1.01,1.1-1.6501,2.11-1.52h.01c1.01,.1699,1.69,1.1299,1.52,2.1299Z"/></g><path class="uuid-7d830331-c02d-4462-ba0b-035103995860" d="M282.6944,404.9752s.1542,51.0932,0,53.8776c-.1733,2.7844-24.5656,26.8979-57.3164,26.8979-50.2757,0-110.4386-18.3807-109.5542-30.3363,.5772-7.8873,1.3085-50.4392,1.3085-50.4392h165.5621Z"/></g><path class="uuid-eacbd809-2ff0-4944-94ad-4d4b3bb22871" d="M387.8964,492.229l-42.2825-113.0649c-6.1464-17.8425-19.9005-29.1923-39.5897-20.8529-12.0614,5.1172-22.6322,20.4678-14.7355,39.9408l61.9816,114.1419c6.0593,13.8506,16.7649,19.0539,27.2298,14.2834,12.6002-5.7761,14.5814-16.4621,7.3963-34.4484Z"/><path class="uuid-eacbd809-2ff0-4944-94ad-4d4b3bb22871" d="M351.4489,528.3077c.35-5.24,1.65-10.95-.05-17.5-.24-.8501-.4-1.76-.47-2.71v-.01c-.6-8.1699,5.35-19.05,17.4901-21.25,13.5699-2.45,19.67,3.4202,22.33,14.3,.26,1.1799,.55,2.46,.89,3.8198,0,.0103,.01,.0303,.01,.04,1.62,6.7603,3.96,15.4202,6.15,23.6201h-46.38c.02-.1001,.02-.21,.03-.3101Z"/><g><path class="uuid-eacbd809-2ff0-4944-94ad-4d4b3bb22871" d="M235.9445,234.2668c-4.8862-14.5765,2.972-30.3604,17.5534-35.2467,14.5814-4.8813,30.356,2.972,35.2422,17.549l53.5072,159.5841c4.8862,14.5769-2.972,30.356-17.544,35.2422-14.5814,4.8912-30.356-2.9671-35.2422-17.544l-53.5166-159.5846Z"/><rect class="uuid-686bc30e-1f08-45f0-9395-a4b8381f6153" x="263.2937" y="302.1494" width="55.6776" height="18.325" transform="translate(-83.8614 108.697) rotate(-18.5354)"/><path class="uuid-346cc095-37b7-4d2f-bf50-b2f554a203bb" d="M260.3269,315.2447l-26.8644-80.1506c-5.3378-15.9233,3.2705-33.2123,19.1987-38.5555,15.9283-5.3383,33.2221,3.2705,38.5605,19.2032l26.8639,80.1407-57.7587,19.3622Z"/><polygon class="uuid-0c4d0b97-fab2-4ca8-ad4f-e61fa66efa5d" points="259.9521 322.0446 322.4814 301.0913 317.2587 285.5141 254.7389 306.468 259.9521 322.0446"/></g><g><rect class="uuid-eacbd809-2ff0-4944-94ad-4d4b3bb22871" x="181.2731" y="132.8117" width="59.2883" height="69.7576"/><path class="uuid-686bc30e-1f08-45f0-9395-a4b8381f6153" d="M181.2731,132.8117h59.2883v38.8919c-2.4431,.3127-5.0113,.4905-7.7814,.4905-20.3718,0-43.1773-5.5545-51.5069-24.9886v-14.3937Z"/><g><path class="uuid-b6e3522e-e062-45bb-9c9d-1e911f84fade" d="M240.5614,177.2439s34.1165,19.867,39.3489,23.1468c5.2418,3.2705,11.3592,8.7339,10.263,23.1419-1.0967,14.4184-5.6752,203.2765-5.6752,203.2765-14.081,6.9876-28.0567,12.451-33.7318,13.105-5.6845,.654-10.1472,.7648-13.9756-2.9479-3.8186-3.7176-15.1778-17.3564-15.1778-17.3564,0,0-18.6693,12.6627-27.0762,17.3564-4.6553,2.5968-8.368,4.0973-13.9658,2.9479-12.2249-2.515-60.4904-16.5916-62.0101-17.4672-1.539-.8751-2.9528-1.8561-2.8469-3.496,.1152-1.6399,1.0386-193.7828,1.6926-202.4634,.6638-8.6757,4.5883-17.0294,14.9089-21.6128,10.3107-4.5834,48.9579-20.3092,48.9579-20.3092l40.3397,28.004,18.9486-25.3255Z"/><path class="uuid-fd22e763-a6ed-4ce4-af20-51ce15e8621e" d="M220.6318,201.7036l.981,.8658,.981-.9042v219.1176c-.1635-.197-.3171-.3846-.4422-.5383-.3369-.3994-.5388-.6348-.5388-.6348,0,0-.3654,.2452-.981,.6589V201.7036Z"/><path class="uuid-0c4d0b97-fab2-4ca8-ad4f-e61fa66efa5d" d="M240.5614,171.7036l-18.9486,30.8657s18.5925,14.9808,19.4868,15.8899c.9042,.8943,3.2798,.9761,3.6841-.7407,.4137-1.7217,5.819-34.2273,5.915-34.5543,.0965-.327,.1349-.7746-.1921-1.1016s-9.9453-10.359-9.9453-10.359Z"/><path class="uuid-0c4d0b97-fab2-4ca8-ad4f-e61fa66efa5d" d="M180.9461,165.9807l40.6667,36.5886s-21.4493,14.9808-22.3535,15.8899c-.8943,.8943-2.7701,.7692-3.6836-.7407-1.5389-2.5298-26.7777-37.9158-26.8644-38.2384-.096-.3221-.1344-.7791,.1926-1.1061,.327-.3221,12.0422-12.3934,12.0422-12.3934Z"/></g></g><g><path class="uuid-eacbd809-2ff0-4944-94ad-4d4b3bb22871" d="M116.1082,215.8334c5.2901-14.4376,21.2853-21.8438,35.7229-16.5488,14.4371,5.2999,21.8339,21.2902,16.5434,35.7229l-57.9606,158.0215c-5.2999,14.4327-21.2853,21.8388-35.7229,16.5438-14.4277-5.2901-21.8339-21.2858-16.5438-35.7184l57.9611-158.021Z"/><polygon class="uuid-686bc30e-1f08-45f0-9395-a4b8381f6153" points="134.0078 328.6525 81.7416 309.4784 88.051 292.2663 140.3271 311.4503 134.0078 328.6525"/><path class="uuid-b6e3522e-e062-45bb-9c9d-1e911f84fade" d="M84.5309,294.2765l29.115-79.3523c5.7899-15.7741,23.3147-23.8875,39.0795-18.0971,15.7648,5.7805,23.8924,23.3152,18.1114,39.0844l-29.115,79.3523-57.1909-20.9874Z"/><polygon class="uuid-0c4d0b97-fab2-4ca8-ad4f-e61fa66efa5d" points="79.9909 299.3548 141.8951 322.0786 147.5506 306.6507 85.6463 283.9368 79.9909 299.3548"/></g><g><path class="uuid-eacbd809-2ff0-4944-94ad-4d4b3bb22871" d="M65.0726,251.9266c-.1733-5.4442-1.2696-10.7825,1.6542-15.4476,2.9528-4.6794,6.3577-12.908,6.8389-19.1741,.4713-6.2568,2.7893-14.3844,4.5686-17.9434,1.799-3.5733,5.0113-6.5212,4.6651-9.2145-.3561-2.7026-5.7328-6.3769-12.1289-4.0589-6.3961,2.3037-9.6759,9.4405-10.8593,13.3458-.0094,.0719-.0192,.1344-.0478,.1876-.8372-1.5153-1.568-3.203-1.9334-5.002l-.0098,.0049-7.0501-35.4008c-.7791-3.8329-4.511-6.3045-8.3394-5.5545-3.0779,.6156-5.2418,3.1262-5.6362,6.0549l-.3368-1.5916c-.8175-3.7659-4.5395-6.1558-8.3005-5.3334-3.7703,.8126-6.1657,4.5395-5.3383,8.2956l1.0583,4.8527c-1.472-2.5682-4.5115-4.0111-7.5411-3.3039-3.6935,.885-5.9731,4.5878-5.1073,8.2764l.7407,3.1168c-1.6064-1.9526-4.2514-2.9243-6.8871-2.2604-3.6162,.9278-5.7998,4.6169-4.8665,8.2527l7.579,29.5045c1.4429,5.5786,8.6664,30.7017,18.0537,48.3423,2.0777,9.5174,10.0226,18.1641,24.7291,15.4328,14.7163-2.7125,15.6495-14.7838,14.4952-21.3818Z"/><path class="uuid-686bc30e-1f08-45f0-9395-a4b8381f6153" d="M35.8808,218.3385l-.0483-.0094c4.3573-13.0715,18.5733-16.3178,23.5073-17.0585-.5964,2.6692-.5481,4.0638-2.7701,4.4632-3.6935,.6683-15.7643,2.8327-20.6889,12.6046Zm1.3848-57.1717c-.4038,.0192-.683,.3989-.6446,.784,0,0,.231,2.0388,.7023,5.0734,.2886,1.5005,.5388,3.2798,.9042,5.1556,.3945,1.8659,.7983,3.8713,1.2026,5.8864,.8559,3.9963,1.8659,7.9449,2.6928,10.9076,.7983,2.9479,1.4429,4.9005,1.4429,4.9005,.1251,.3127,.423,.5191,.7889,.4762,.3846-.0197,.6633-.3851,.6249-.784,0,0-.2118-2.0393-.7023-5.0788-.4806-3.0247-1.212-7.0358-2.0871-11.0371-.4713-1.9861-.9332-3.9678-1.3755-5.819-.4521-1.8807-.9426-3.5975-1.3178-5.0881-.8175-2.9577-1.4715-4.8961-1.4715-4.8961-.096-.3171-.423-.5289-.7599-.4806Zm-12.7829,6.2036c-.3945,.0675-.683,.4087-.6446,.7889,0,0,.2118,1.7793,.683,4.3908,.231,1.308,.5003,2.8228,.8559,4.4484,.3659,1.6158,.7505,3.3379,1.1258,5.064,.8367,3.4197,1.8078,6.8295,2.6066,9.3637,.7791,2.5249,1.4139,4.1983,1.4139,4.1983,.1054,.3034,.423,.491,.7599,.457,.394-.0384,.6732-.4137,.6348-.7983,0,0-.2118-1.7601-.6638-4.3859-.4619-2.6115-1.1543-6.079-1.991-9.508-.4614-1.7024-.8943-3.4192-1.3272-5.0158-.4235-1.6015-.9042-3.0587-1.2696-4.343-.7988-2.5342-1.4336-4.1933-1.4336-4.1933-.1054-.3034-.4132-.5003-.75-.4669Zm-12.1673,7.6278c-.3846,.0576-.683,.4329-.6156,.8076,0,0,.2118,1.5055,.654,3.7033,.2502,1.1154,.5003,2.4047,.8559,3.756,.3561,1.3656,.7505,2.8036,1.1258,4.2657,.8076,2.8711,1.7793,5.718,2.5584,7.8292,.7692,2.1112,1.4139,3.4866,1.4139,3.4866,.1251,.2935,.423,.4669,.75,.4137,.3945-.0527,.6737-.423,.6348-.8032,0,0-.2211-1.5-.6732-3.7127-.4614-2.2023-1.1346-5.1266-1.9812-7.9927-.4427-1.4286-.885-2.876-1.2888-4.213-.4137-1.3321-.9042-2.5633-1.2701-3.626-.7791-2.1161-1.4139-3.4916-1.4139-3.4916-.1054-.2694-.423-.4614-.75-.423Z"/></g><path class="uuid-eacbd809-2ff0-4944-94ad-4d4b3bb22871" d="M66.2363,255.1389l42.0904,113.1274c7.0501,17.5101,4.0973,35.1024-16.2454,41.696-12.4751,4.0254-30.5101-.654-37.2909-20.5402l-27.9321-126.848c-4.5011-14.4277,.1827-25.3737,11.2247-28.6245,13.2926-3.886,21.8053,2.8853,28.1532,21.1893Z"/><g><g><path class="uuid-eacbd809-2ff0-4944-94ad-4d4b3bb22871" d="M271.1764,81.0596c-.4516,20.1408-.1635,36.0257-3.597,51.4251-3.4433,15.3895-14.6587,27.9173-39.2243,27.9173s-52.6991-8.0508-54.6709-38.8343c-4.0397-4.3672-10.59-19.9778-10.8111-37.4495-.2118-17.4623,1.0962-54.4744,40.9455-60.154,39.8492-5.6796,68.4545,8.95,67.3578,57.0953Z"/><path class="uuid-0f9ec662-76ea-444e-acef-bff39008c093" d="M250.3816,96.8914c0,2.746,1.635,4.9631,3.6452,4.9631,2.0009,0,3.6457-2.2171,3.6457-4.9631,0-2.7361-1.6448-4.9581-3.6457-4.9581-2.0102,0-3.6452,2.222-3.6452,4.9581Z"/><path class="uuid-0f9ec662-76ea-444e-acef-bff39008c093" d="M206.0406,96.8914c0,2.746,1.635,4.9631,3.6452,4.9631s3.6457-2.2171,3.6457-4.9631c0-2.7361-1.6355-4.9581-3.6457-4.9581s-3.6452,2.222-3.6452,4.9581Z"/><path class="uuid-0f9ec662-76ea-444e-acef-bff39008c093" d="M214.9759,81.43c-.3748,.4373-2.9528,.1635-4.9916,0-2.5396-.2068-5.7712,.1487-5.7712-.4477,0-.6008,1.8852-3.4866,6.8004-2.943,3.597,.3895,4.6169,2.616,3.9624,3.3906Z"/><path class="uuid-0f9ec662-76ea-444e-acef-bff39008c093" d="M249.535,81.43c.3177,.4373,2.5007,.1635,4.2416,0,2.1545-.2068,4.8961,.1487,4.8961-.4477,0-.6008-1.5966-3.4866-5.7806-2.943-3.0395,.3895-3.9151,2.616-3.3571,3.3906Z"/><path class="uuid-686bc30e-1f08-45f0-9395-a4b8381f6153" d="M234.9921,117.3164c3.4724,0,6.2041-2.2939,6.3287-3.891l-1.1538-13.9131c-.0675-.721-.7407-1.2262-1.4139-1.1972-.7215,.0625-1.2504,.6973-1.1927,1.4188l1.1154,13.3886c-.3654,.4811-1.7601,1.6832-3.953,1.568-.7983-.0867-1.337,.5191-1.3755,1.2405-.0384,.7165,.5195,1.337,1.2504,1.3705,.1349,.0098,.2595,.0148,.3945,.0148Z"/><g><path class="uuid-59d073da-d0da-4daf-9d6f-d29b6f79fc37" d="M232.0393,127.1317c4.1456,.26,11.0898,2.5588,11.1381,4.4199,.0483,1.861-1.6926,12.6051-12.937,12.6051-15.1778,0-15.1393-11.73-14.4853-14.2933,.6545-2.5726,8.6374-3.2222,16.2843-2.7317Z"/><path class="uuid-61e46ecc-d941-465d-ba40-85e09dcf6e67" d="M215.7165,133.9419c10.9362-3.3187,19.4873,1.5582,23.0941,7.1462-1.9334,1.765-4.6745,3.0685-8.5704,3.0685-10.7436,0-13.8505-5.8628-14.5238-10.2147Z"/><path class="uuid-172ef9bc-b088-468c-b74b-f6e8cd39c7e3" d="M216.3705,128.9548c2.1161-1.8083,9.0224-2.2511,15.6687-1.8231,4.1264,.26,11.013,2.5441,11.1282,4.3957-5.1359,.6732-16.3222,1.4331-26.797-2.5726Z"/></g><path class="uuid-49c44cc7-da68-4255-b7d6-39c70c7f086f" d="M198.3074,63.2078c0,12.1191-4.9729,17.419-8.5797,19.9291-3.5876,2.5106-6.435,4.6026-6.435,8.7964v14.8365c0,1.6399-.9903,2.9528-2.2407,2.5101-1.2504-.4373-6.079-2.8903-6.079-5.2901l-14.7931-10.455s-5.521-10.4265-4.1264-29.0958c1.3947-18.6693,15.6397-27.9178,15.6397-27.9178,.2502-10.4841,9.9069-29.1534,30.5481-36.5212,.9234,5.4058,0,11.4124,0,11.4124,9.4356-8.5172,41.0996-11.143,52.4588-7.2092-1.539,4.9104-7.0984,10.0418-7.0984,10.0418,10.8116,1.6399,30.6736,12.1191,39.1859,24.9985-3.2705,5.4629-11.571,10.0512-11.571,10.0512,3.7127,3.7078,8.1853,15.1684,8.8392,24.3396-11.4557-.2118-27.1816-6.767-27.1816-6.767,0,0,.8751,7.1225-.7121,12.9513-9.936-.6156-28.4896-10.6569-33.7318-18.7319,1.0869,4.1983,.1059,16.207-1.1159,19.8094-7.1944-1.7458-18.6979-11.0854-23.007-17.6883Z"/><g><path class="uuid-eacbd809-2ff0-4944-94ad-4d4b3bb22871" d="M174.5593,106.2792c-.2502-5.651-1.1445-13.918-9.0894-14.0865-7.9449-.1586-9.0027,5.8195-8.7624,15.2309,.2502,9.4164,9.8301,17.5199,18.2655,14.2495l-.4137-15.3939Z"/><path class="uuid-686bc30e-1f08-45f0-9395-a4b8381f6153" d="M162.8633,113.0506c.0576,0,.1251-.0049,.1827-.0148,.7214-.101,1.2218-.7692,1.1159-1.4808-.0675-.4811,.231-.9859,.7983-1.3612,.7791-.4954,2.0969-.7264,3.434,.1394,.4132,.2743,.9618,.2743,1.3848,.0143,.4329-.2595,.6732-.7407,.6254-1.2356-.7215-7.9065-5.7618-9.3878-5.9731-9.4455-.7121-.1827-1.4237,.2162-1.6163,.9184-.1827,.688,.2118,1.4089,.9042,1.6064,.1542,.0433,2.6933,.9042,3.7225,5.0305-1.3562-.226-2.7509,.0286-3.8954,.7742-1.4429,.9184-2.1929,2.4333-1.9817,3.9289,.0965,.6545,.654,1.1258,1.2986,1.1258Z"/></g></g><g><g><path class="uuid-7ebf365e-67cf-4fbf-b90f-d0a3c47e13ee" d="M216.2733,117.7525c-9.2539,0-16.7822-7.5283-16.7822-16.7822s7.5283-16.7822,16.7822-16.7822,16.7822,7.5283,16.7822,16.7822-7.5283,16.7822-16.7822,16.7822Zm0-31.5645c-8.1509,0-14.7822,6.6309-14.7822,14.7822s6.6313,14.7822,14.7822,14.7822,14.7822-6.6309,14.7822-14.7822-6.6313-14.7822-14.7822-14.7822Z"/><path class="uuid-7ebf365e-67cf-4fbf-b90f-d0a3c47e13ee" d="M261.348,117.7525c-9.2539,0-16.7822-7.5283-16.7822-16.7822s7.5283-16.7822,16.7822-16.7822,16.7822,7.5283,16.7822,16.7822-7.5283,16.7822-16.7822,16.7822Zm0-31.5645c-8.1509,0-14.7822,6.6309-14.7822,14.7822s6.6313,14.7822,14.7822,14.7822,14.7822-6.6309,14.7822-14.7822-6.6313-14.7822-14.7822-14.7822Z"/><path class="uuid-7ebf365e-67cf-4fbf-b90f-d0a3c47e13ee" d="M231.5248,97.1968l-.7939-1.8359c5.3325-2.3066,11.4751-2.3682,16.8516-.1611l-.7588,1.8496c-4.8101-1.9717-10.5288-1.917-15.2988,.1475Z"/></g><path class="uuid-7ebf365e-67cf-4fbf-b90f-d0a3c47e13ee" d="M200.1644,101.9156c-5.7983-2.0039-22.02-6.748-27.3691-4.7031l-.7158-1.8672c7.123-2.7266,27.8589,4.376,28.7383,4.6797l-.6533,1.8906Z"/></g></g></svg>