<?xml version="1.0" encoding="utf-8"?>
<!-- Generator: Adobe Illustrator 27.2.0, SVG Export Plug-In . SVG Version: 6.00 Build 0)  -->
<svg version="1.1" id="visual" xmlns="http://www.w3.org/2000/svg" xmlns:xlink="http://www.w3.org/1999/xlink" x="0px" y="0px"
	 viewBox="0 0 900 106" style="enable-background:new 0 0 900 106;" xml:space="preserve">
<style type="text/css">
	.st0{fill:#CAD9E3;}
	.st1{fill:#9ABBBD;}
	.st2{fill:#7B9C8A;}
</style>
<path class="st0" d="M900,106h-21.5c-21.5,0-64.5,0-107.3,0c-42.9,0-85.5,0-128.4,0c-42.8,0-85.8,0-128.6,0c-42.9,0-85.5,0-128.4,0
	c-42.8,0-85.8,0-128.6,0c-42.9,0-85.5,0-128.4,0c-42.8,0-85.8,0-107.3,0H0V12l21.5,4.5C43,21,86,30,128.8,32
	c42.9,2,85.5-3,128.4-8.2C300,18.7,343,13.3,385.8,8.2C428.7,3,471.3-2,514.2,0.8C557,3.7,600,14.3,642.8,21.5
	c66.4,11.2,115.8,5.4,128.4,4.7C816.7,23.8,872.1,12.3,900,6.4V106z"/>
<path class="st1" d="M0,59l21.5-3.2C43,52.7,86,46.3,128.8,43.7c42.9-2.7,85.5-1.7,128.4-5.2C300,35,343,27,385.8,30.2
	c42.9,3.1,85.5,17.5,128.4,18.6C557,50,600,38,642.8,36.3c42.9-1.6,85.5,7,128.4,7.7c42.8,0.7,85.8-6.7,107.3-10.3L900,30v76h-21.5
	c-21.5,0-64.5,0-107.3,0c-42.9,0-85.5,0-128.4,0c-42.8,0-85.8,0-128.6,0c-42.9,0-85.5,0-128.4,0c-42.8,0-85.8,0-128.6,0
	c-42.9,0-85.5,0-128.4,0c-42.8,0-85.8,0-107.3,0H0V59z"/>
<path class="st2" d="M0,62l21.5-0.2C43,61.7,86,61.3,128.8,63.7c42.9,2.3,85.5,7.3,128.4,11c42.8,3.6,85.8,6,128.6,4.3
	c42.9-1.7,85.5-7.3,128.4-11.8c42.8-4.5,85.8-7.9,128.6-9.7c42.9-1.8,85.5-2.2,128.4-2.8C814,54,857,53,878.5,52.5L900,52v54h-21.5
	c-21.5,0-64.5,0-107.3,0c-42.9,0-85.5,0-128.4,0c-42.8,0-85.8,0-128.6,0c-42.9,0-85.5,0-128.4,0c-42.8,0-85.8,0-128.6,0
	c-42.9,0-85.5,0-128.4,0c-42.8,0-85.8,0-107.3,0H0V62z"/>
</svg>
