<svg viewBox="0 0 201 217" fill="none" xmlns="http://www.w3.org/2000/svg">
    <path d="M200.661 216.85H7.09399V126.261L15.558 120.254L7.09399 115.638V97.061H200.661V151.815L195.766 163.03L200.661 171.093V216.85Z"
          fill="#4A687D"/>
    <path d="M193.567 210.939H0V120.349L8.46497 114.343L0 109.727V91.15H193.567V145.904L188.672 157.119L193.567 165.182V210.939Z"
          fill="#C69742"/>
    <path d="M160.614 102.139L163.068 100.502L156.832 91.15H153.285L160.614 102.139Z" fill="#BE803A"/>
    <path d="M164.585 102.489C164.585 105.709 161.974 108.32 158.754 108.32C155.534 108.32 152.923 105.71 152.923 102.489C152.923 99.268 155.533 96.658 158.754 96.658C161.974 96.659 164.585 99.269 164.585 102.489Z"
          fill="#BE803A"/>
    <path d="M44.29 101.987C44.29 105.207 41.679 107.818 38.459 107.818C35.239 107.818 32.628 105.207 32.628 101.987C32.628 98.767 35.239 96.156 38.459 96.156C41.679 96.156 44.29 98.767 44.29 101.987Z"
          fill="#BE803A"/>
    <path d="M33.64 98.704C33.39 99.07 33.181 99.466 33.019 99.885C35.815 99.866 38.604 100.129 41.358 100.78C42.333 101.01 43.313 101.294 44.275 101.584C44.244 101.133 44.162 100.696 44.035 100.279C43.242 100.045 42.438 99.821 41.631 99.63C38.983 99.005 36.312 98.726 33.64 98.704Z"
          fill="#743D3C"/>
    <path d="M39.575 100.502L42.03 102.139L49.36 91.15H45.814L39.575 100.502Z" fill="#BE803A"/>
    <path d="M41.358 100.78C41.807 100.886 42.256 101.004 42.705 101.128L43.395 100.094C42.811 99.928 42.222 99.77 41.631 99.63C41.202 99.529 40.772 99.437 40.342 99.353L39.629 100.422C40.206 100.525 40.783 100.644 41.358 100.78Z"
          fill="#743D3C"/>
    <path d="M38.483 102.139L36.407 100.755L96.624 10.753L98.7 12.137L38.483 102.139Z" fill="white"/>
    <path d="M92.397 17.072C93.107 17.513 93.867 17.881 94.667 18.166L98.7 12.138L96.624 10.753L92.397 17.072Z"
          fill="#E7E9E6"/>
    <path d="M158.023 102.113L160.098 100.728L100.707 11.6894L98.6313 13.0738L158.023 102.113Z" fill="white"/>
    <path d="M102.044 18.203C102.832 17.898 103.569 17.49 104.237 16.995L100.711 11.708L98.635 13.092L102.044 18.203Z"
          fill="#E7E9E6"/>
    <path d="M42.511 101.294C42.511 103.963 40.347 106.126 37.678 106.126C35.009 106.126 32.846 103.962 32.846 101.294C32.846 98.626 35.01 96.462 37.678 96.462C40.347 96.461 42.511 98.625 42.511 101.294Z"
          fill="#FFEA45"/>
    <path d="M40.4 100.697H38.275V98.572H37.081V100.697H34.957V101.89H37.081V104.015H38.275V101.89H40.4V100.697Z"
          fill="#FFAF45"/>
    <path d="M160.761 104.711C158.874 106.598 155.814 106.598 153.927 104.711C152.04 102.824 152.04 99.764 153.927 97.877C155.814 95.99 158.874 95.99 160.761 97.877C162.648 99.764 162.648 102.824 160.761 104.711Z"
          fill="#FFEA45"/>
    <path d="M159.69 102.796L158.188 101.294L159.69 99.791L158.846 98.947L157.344 100.45L155.841 98.947L154.997 99.791L156.5 101.294L154.997 102.796L155.841 103.64L157.344 102.137L158.846 103.64L159.69 102.796Z"
          fill="#FFAF45"/>
    <path d="M105.638 6.993C105.638 10.855 102.507 13.986 98.645 13.986C94.783 13.986 91.652 10.855 91.652 6.993C91.652 3.131 94.783 0 98.645 0C102.507 0 105.638 3.131 105.638 6.993Z"
          fill="#FFEA45"/>
    <path d="M100.398 5.02459C100.469 3.44553 99.2472 2.10753 97.6682 2.03609C96.0891 1.96464 94.7511 3.1868 94.6797 4.76586C94.6082 6.34492 95.8304 7.68292 97.4094 7.75436C98.9885 7.82581 100.326 6.60365 100.398 5.02459Z"
          fill="#FFFFBF"/>
    <g filter="url(#filter0_d_21_312)">
        <path d="M34.668 151.105C33.168 151.105 31.9141 150.812 30.9062 150.227C29.8984 149.617 29.0781 148.82 28.4453 147.836C27.8125 146.828 27.332 145.715 27.0039 144.496C26.6758 143.277 26.4531 142.023 26.3359 140.734C26.2188 139.422 26.1602 138.191 26.1602 137.043C26.1602 135.895 26.2305 134.699 26.3711 133.457C26.5352 132.215 26.793 131.008 27.1445 129.836C27.5195 128.664 28.0352 127.609 28.6914 126.672C29.3711 125.711 30.2148 124.949 31.2227 124.387C32.2305 123.824 33.4492 123.543 34.8789 123.543C36.1445 123.543 37.2695 123.789 38.2539 124.281C39.2383 124.773 40.0586 125.57 40.7148 126.672C41.0195 127.164 41.2773 127.691 41.4883 128.254C41.6992 128.816 41.8047 129.391 41.8047 129.977C41.8047 130.961 41.2773 131.453 40.2227 131.453C39.6367 131.453 39.2031 131.301 38.9219 130.996C38.6641 130.668 38.4531 130.27 38.2891 129.801C38.1484 129.309 37.9609 128.828 37.7266 128.359C37.5156 127.867 37.1875 127.469 36.7422 127.164C36.2969 126.836 35.6289 126.672 34.7383 126.672C33.7773 126.672 32.9805 126.906 32.3477 127.375C31.7148 127.844 31.2109 128.465 30.8359 129.238C30.4609 130.012 30.1797 130.855 29.9922 131.77C29.8281 132.684 29.7109 133.586 29.6406 134.477C29.5938 135.367 29.5703 136.152 29.5703 136.832C29.5703 137.488 29.5938 138.297 29.6406 139.258C29.6875 140.219 29.793 141.215 29.957 142.246C30.1211 143.254 30.3789 144.203 30.7305 145.094C31.1055 145.984 31.6094 146.711 32.2422 147.273C32.875 147.812 33.6836 148.082 34.668 148.082C35.9336 148.082 36.8828 147.742 37.5156 147.062C38.1484 146.383 38.4648 145.422 38.4648 144.18V140.418C38.4648 139.973 38.3242 139.691 38.043 139.574C37.7852 139.434 37.457 139.375 37.0586 139.398C36.6602 139.398 36.25 139.398 35.8281 139.398C35.3359 139.398 34.9023 139.316 34.5273 139.152C34.1523 138.965 33.9648 138.543 33.9648 137.887C33.9648 137.301 34.1406 136.902 34.4922 136.691C34.8438 136.48 35.2773 136.375 35.793 136.375H38.6758C39.543 136.375 40.2695 136.574 40.8555 136.973C41.4648 137.371 41.7695 138.051 41.7695 139.012V144.074C41.7695 146.254 41.125 147.977 39.8359 149.242C38.5703 150.484 36.8477 151.105 34.668 151.105ZM52.0352 151.105C50.6289 151.105 49.4453 150.812 48.4844 150.227C47.5469 149.617 46.7852 148.82 46.1992 147.836C45.6367 146.828 45.2031 145.727 44.8984 144.531C44.6172 143.312 44.4297 142.082 44.3359 140.84C44.2422 139.598 44.1953 138.449 44.1953 137.395C44.1953 136.316 44.2422 135.156 44.3359 133.914C44.4531 132.648 44.6523 131.406 44.9336 130.188C45.2383 128.969 45.6836 127.867 46.2695 126.883C46.8555 125.875 47.6289 125.066 48.5898 124.457C49.5508 123.848 50.7461 123.543 52.1758 123.543C53.5586 123.543 54.707 123.848 55.6211 124.457C56.5586 125.066 57.3086 125.875 57.8711 126.883C58.4336 127.891 58.8555 129.004 59.1367 130.223C59.418 131.441 59.6055 132.672 59.6992 133.914C59.793 135.133 59.8398 136.258 59.8398 137.289C59.8398 138.344 59.793 139.492 59.6992 140.734C59.6055 141.977 59.4062 143.207 59.1016 144.426C58.8203 145.645 58.3867 146.758 57.8008 147.766C57.2383 148.773 56.4883 149.582 55.5508 150.191C54.6133 150.801 53.4414 151.105 52.0352 151.105ZM52 147.977C53.3125 147.977 54.2969 147.414 54.9531 146.289C55.3984 145.539 55.7148 144.613 55.9023 143.512C56.1133 142.387 56.2539 141.25 56.3242 140.102C56.3945 138.953 56.4297 137.969 56.4297 137.148C56.4297 136.562 56.4062 135.836 56.3594 134.969C56.3359 134.102 56.2539 133.188 56.1133 132.227C55.9727 131.266 55.7383 130.363 55.4102 129.52C55.1055 128.676 54.6719 127.996 54.1094 127.48C53.5469 126.941 52.832 126.672 51.9648 126.672C51.1211 126.672 50.4297 126.93 49.8906 127.445C49.3516 127.938 48.918 128.582 48.5898 129.379C48.2852 130.176 48.0625 131.043 47.9219 131.98C47.7812 132.895 47.6875 133.773 47.6406 134.617C47.6172 135.461 47.6055 136.164 47.6055 136.727C47.6055 137.57 47.6289 138.59 47.6758 139.785C47.7461 140.957 47.875 142.117 48.0625 143.266C48.2734 144.414 48.5781 145.375 48.9766 146.148C49.6094 147.367 50.6172 147.977 52 147.977ZM64.0234 151.105C63.4375 151.105 63.0273 150.918 62.793 150.543C62.5586 150.168 62.4414 149.711 62.4414 149.172V126.004C62.4414 125.324 62.582 124.75 62.8633 124.281C63.1445 123.789 63.6602 123.543 64.4102 123.543C64.9492 123.543 65.3828 123.73 65.7109 124.105C66.0391 124.457 66.2852 124.855 66.4492 125.301L74.3594 144.637V125.512C74.3594 124.973 74.4766 124.516 74.7109 124.141C74.9453 123.742 75.3555 123.543 75.9414 123.543C76.5508 123.543 76.9727 123.742 77.207 124.141C77.4414 124.516 77.5586 124.973 77.5586 125.512V148.609C77.5586 149.289 77.418 149.875 77.1367 150.367C76.8555 150.859 76.3281 151.105 75.5547 151.105C75.0156 151.105 74.5703 150.918 74.2188 150.543C73.8906 150.168 73.6328 149.758 73.4453 149.312L65.6406 130.152V149.172C65.6406 149.734 65.5234 150.203 65.2891 150.578C65.0547 150.93 64.6328 151.105 64.0234 151.105ZM83.2188 150.613C82.4453 150.613 81.7891 150.344 81.25 149.805C80.7109 149.242 80.4414 148.574 80.4414 147.801V126.848C80.4414 126.098 80.7109 125.441 81.25 124.879C81.8125 124.316 82.4688 124.035 83.2188 124.035H94.1523C94.6914 124.035 95.1367 124.152 95.4883 124.387C95.8398 124.598 96.0156 124.996 96.0156 125.582C96.0156 126.168 95.8398 126.578 95.4883 126.812C95.1367 127.023 94.6914 127.129 94.1523 127.129H85.1523C84.2148 127.129 83.7461 127.598 83.7461 128.535V135.461H92.1133C92.6523 135.461 93.0977 135.578 93.4492 135.812C93.8242 136.023 94.0117 136.422 94.0117 137.008C94.0117 137.594 93.8242 138.004 93.4492 138.238C93.0977 138.449 92.6523 138.555 92.1133 138.555H83.7461V146.113C83.7461 147.051 84.2148 147.52 85.1523 147.52H94.1523C94.6914 147.52 95.1367 147.637 95.4883 147.871C95.8398 148.082 96.0156 148.48 96.0156 149.066C96.0156 149.652 95.8398 150.062 95.4883 150.297C95.1367 150.508 94.6914 150.613 94.1523 150.613H83.2188ZM118.094 151.105C117.461 151.105 117.027 150.906 116.793 150.508C116.559 150.109 116.441 149.629 116.441 149.066V126.848C116.441 126.074 116.711 125.418 117.25 124.879C117.789 124.316 118.445 124.035 119.219 124.035H130.152C130.691 124.035 131.137 124.152 131.488 124.387C131.84 124.598 132.016 124.996 132.016 125.582C132.016 126.168 131.84 126.578 131.488 126.812C131.137 127.023 130.691 127.129 130.152 127.129H121.188C120.25 127.129 119.781 127.598 119.781 128.535V135.707H128.465C129.004 135.707 129.449 135.824 129.801 136.059C130.152 136.27 130.328 136.668 130.328 137.254C130.328 137.84 130.152 138.25 129.801 138.484C129.449 138.695 129.004 138.801 128.465 138.801H119.781V149.066C119.781 149.652 119.652 150.145 119.395 150.543C119.16 150.918 118.727 151.105 118.094 151.105ZM142.035 151.105C140.629 151.105 139.445 150.812 138.484 150.227C137.547 149.617 136.785 148.82 136.199 147.836C135.637 146.828 135.203 145.727 134.898 144.531C134.617 143.312 134.43 142.082 134.336 140.84C134.242 139.598 134.195 138.449 134.195 137.395C134.195 136.316 134.242 135.156 134.336 133.914C134.453 132.648 134.652 131.406 134.934 130.188C135.238 128.969 135.684 127.867 136.27 126.883C136.855 125.875 137.629 125.066 138.59 124.457C139.551 123.848 140.746 123.543 142.176 123.543C143.559 123.543 144.707 123.848 145.621 124.457C146.559 125.066 147.309 125.875 147.871 126.883C148.434 127.891 148.855 129.004 149.137 130.223C149.418 131.441 149.605 132.672 149.699 133.914C149.793 135.133 149.84 136.258 149.84 137.289C149.84 138.344 149.793 139.492 149.699 140.734C149.605 141.977 149.406 143.207 149.102 144.426C148.82 145.645 148.387 146.758 147.801 147.766C147.238 148.773 146.488 149.582 145.551 150.191C144.613 150.801 143.441 151.105 142.035 151.105ZM142 147.977C143.312 147.977 144.297 147.414 144.953 146.289C145.398 145.539 145.715 144.613 145.902 143.512C146.113 142.387 146.254 141.25 146.324 140.102C146.395 138.953 146.43 137.969 146.43 137.148C146.43 136.562 146.406 135.836 146.359 134.969C146.336 134.102 146.254 133.188 146.113 132.227C145.973 131.266 145.738 130.363 145.41 129.52C145.105 128.676 144.672 127.996 144.109 127.48C143.547 126.941 142.832 126.672 141.965 126.672C141.121 126.672 140.43 126.93 139.891 127.445C139.352 127.938 138.918 128.582 138.59 129.379C138.285 130.176 138.062 131.043 137.922 131.98C137.781 132.895 137.688 133.773 137.641 134.617C137.617 135.461 137.605 136.164 137.605 136.727C137.605 137.57 137.629 138.59 137.676 139.785C137.746 140.957 137.875 142.117 138.062 143.266C138.273 144.414 138.578 145.375 138.977 146.148C139.609 147.367 140.617 147.977 142 147.977ZM154.094 151.105C153.461 151.105 153.027 150.906 152.793 150.508C152.559 150.109 152.441 149.629 152.441 149.066V126.953C152.441 126.156 152.723 125.477 153.285 124.914C153.871 124.328 154.562 124.035 155.359 124.035H159.754C161.348 124.035 162.73 124.27 163.902 124.738C165.098 125.184 166.023 125.922 166.68 126.953C167.336 127.961 167.664 129.32 167.664 131.031C167.664 132.953 167.125 134.43 166.047 135.461C164.992 136.492 163.574 137.207 161.793 137.605C162.402 137.77 162.988 137.992 163.551 138.273C164.137 138.531 164.617 138.906 164.992 139.398C165.391 139.891 165.73 140.582 166.012 141.473C166.293 142.363 166.527 143.277 166.715 144.215C166.926 145.129 167.09 145.891 167.207 146.5C167.324 146.945 167.453 147.438 167.594 147.977C167.734 148.516 167.805 149.02 167.805 149.488C167.805 150.051 167.641 150.461 167.312 150.719C167.008 150.977 166.586 151.105 166.047 151.105C165.461 151.105 165.016 150.883 164.711 150.438C164.406 149.992 164.184 149.406 164.043 148.68C163.902 147.953 163.773 147.156 163.656 146.289C163.562 145.398 163.422 144.52 163.234 143.652C163.07 142.762 162.801 141.953 162.426 141.227C162.074 140.5 161.559 139.914 160.879 139.469C160.199 139.023 159.309 138.801 158.207 138.801H155.746V149.066C155.746 149.629 155.629 150.109 155.395 150.508C155.16 150.906 154.727 151.105 154.094 151.105ZM155.746 135.812H158.488C159.566 135.812 160.539 135.672 161.406 135.391C162.273 135.086 162.965 134.582 163.48 133.879C163.996 133.176 164.254 132.238 164.254 131.066C164.254 129.59 163.797 128.547 162.883 127.938C161.992 127.328 160.867 127.023 159.508 127.023H157.223C156.777 127.023 156.414 127.152 156.133 127.41C155.875 127.668 155.746 128.031 155.746 128.5V135.812ZM61.668 187.105C60.168 187.105 58.9141 186.812 57.9062 186.227C56.8984 185.617 56.0781 184.82 55.4453 183.836C54.8125 182.828 54.332 181.715 54.0039 180.496C53.6758 179.277 53.4531 178.023 53.3359 176.734C53.2188 175.422 53.1602 174.191 53.1602 173.043C53.1602 171.895 53.2305 170.699 53.3711 169.457C53.5352 168.215 53.793 167.008 54.1445 165.836C54.5195 164.664 55.0352 163.609 55.6914 162.672C56.3711 161.711 57.2148 160.949 58.2227 160.387C59.2305 159.824 60.4492 159.543 61.8789 159.543C63.1445 159.543 64.2695 159.789 65.2539 160.281C66.2383 160.773 67.0586 161.57 67.7148 162.672C68.0195 163.164 68.2773 163.691 68.4883 164.254C68.6992 164.816 68.8047 165.391 68.8047 165.977C68.8047 166.961 68.2773 167.453 67.2227 167.453C66.6367 167.453 66.2031 167.301 65.9219 166.996C65.6641 166.668 65.4531 166.27 65.2891 165.801C65.1484 165.309 64.9609 164.828 64.7266 164.359C64.5156 163.867 64.1875 163.469 63.7422 163.164C63.2969 162.836 62.6289 162.672 61.7383 162.672C60.7773 162.672 59.9805 162.906 59.3477 163.375C58.7148 163.844 58.2109 164.465 57.8359 165.238C57.4609 166.012 57.1797 166.855 56.9922 167.77C56.8281 168.684 56.7109 169.586 56.6406 170.477C56.5938 171.367 56.5703 172.152 56.5703 172.832C56.5703 173.488 56.5938 174.297 56.6406 175.258C56.6875 176.219 56.793 177.215 56.957 178.246C57.1211 179.254 57.3789 180.203 57.7305 181.094C58.1055 181.984 58.6094 182.711 59.2422 183.273C59.875 183.812 60.6836 184.082 61.668 184.082C62.9336 184.082 63.8828 183.742 64.5156 183.062C65.1484 182.383 65.4648 181.422 65.4648 180.18V176.418C65.4648 175.973 65.3242 175.691 65.043 175.574C64.7852 175.434 64.457 175.375 64.0586 175.398C63.6602 175.398 63.25 175.398 62.8281 175.398C62.3359 175.398 61.9023 175.316 61.5273 175.152C61.1523 174.965 60.9648 174.543 60.9648 173.887C60.9648 173.301 61.1406 172.902 61.4922 172.691C61.8438 172.48 62.2773 172.375 62.793 172.375H65.6758C66.543 172.375 67.2695 172.574 67.8555 172.973C68.4648 173.371 68.7695 174.051 68.7695 175.012V180.074C68.7695 182.254 68.125 183.977 66.8359 185.242C65.5703 186.484 63.8477 187.105 61.668 187.105ZM79.0352 187.105C77.6289 187.105 76.4453 186.812 75.4844 186.227C74.5469 185.617 73.7852 184.82 73.1992 183.836C72.6367 182.828 72.2031 181.727 71.8984 180.531C71.6172 179.312 71.4297 178.082 71.3359 176.84C71.2422 175.598 71.1953 174.449 71.1953 173.395C71.1953 172.316 71.2422 171.156 71.3359 169.914C71.4531 168.648 71.6523 167.406 71.9336 166.188C72.2383 164.969 72.6836 163.867 73.2695 162.883C73.8555 161.875 74.6289 161.066 75.5898 160.457C76.5508 159.848 77.7461 159.543 79.1758 159.543C80.5586 159.543 81.707 159.848 82.6211 160.457C83.5586 161.066 84.3086 161.875 84.8711 162.883C85.4336 163.891 85.8555 165.004 86.1367 166.223C86.418 167.441 86.6055 168.672 86.6992 169.914C86.793 171.133 86.8398 172.258 86.8398 173.289C86.8398 174.344 86.793 175.492 86.6992 176.734C86.6055 177.977 86.4062 179.207 86.1016 180.426C85.8203 181.645 85.3867 182.758 84.8008 183.766C84.2383 184.773 83.4883 185.582 82.5508 186.191C81.6133 186.801 80.4414 187.105 79.0352 187.105ZM79 183.977C80.3125 183.977 81.2969 183.414 81.9531 182.289C82.3984 181.539 82.7148 180.613 82.9023 179.512C83.1133 178.387 83.2539 177.25 83.3242 176.102C83.3945 174.953 83.4297 173.969 83.4297 173.148C83.4297 172.562 83.4062 171.836 83.3594 170.969C83.3359 170.102 83.2539 169.188 83.1133 168.227C82.9727 167.266 82.7383 166.363 82.4102 165.52C82.1055 164.676 81.6719 163.996 81.1094 163.48C80.5469 162.941 79.832 162.672 78.9648 162.672C78.1211 162.672 77.4297 162.93 76.8906 163.445C76.3516 163.938 75.918 164.582 75.5898 165.379C75.2852 166.176 75.0625 167.043 74.9219 167.98C74.7812 168.895 74.6875 169.773 74.6406 170.617C74.6172 171.461 74.6055 172.164 74.6055 172.727C74.6055 173.57 74.6289 174.59 74.6758 175.785C74.7461 176.957 74.875 178.117 75.0625 179.266C75.2734 180.414 75.5781 181.375 75.9766 182.148C76.6094 183.367 77.6172 183.977 79 183.977ZM97.0352 187.105C95.6289 187.105 94.4453 186.812 93.4844 186.227C92.5469 185.617 91.7852 184.82 91.1992 183.836C90.6367 182.828 90.2031 181.727 89.8984 180.531C89.6172 179.312 89.4297 178.082 89.3359 176.84C89.2422 175.598 89.1953 174.449 89.1953 173.395C89.1953 172.316 89.2422 171.156 89.3359 169.914C89.4531 168.648 89.6523 167.406 89.9336 166.188C90.2383 164.969 90.6836 163.867 91.2695 162.883C91.8555 161.875 92.6289 161.066 93.5898 160.457C94.5508 159.848 95.7461 159.543 97.1758 159.543C98.5586 159.543 99.707 159.848 100.621 160.457C101.559 161.066 102.309 161.875 102.871 162.883C103.434 163.891 103.855 165.004 104.137 166.223C104.418 167.441 104.605 168.672 104.699 169.914C104.793 171.133 104.84 172.258 104.84 173.289C104.84 174.344 104.793 175.492 104.699 176.734C104.605 177.977 104.406 179.207 104.102 180.426C103.82 181.645 103.387 182.758 102.801 183.766C102.238 184.773 101.488 185.582 100.551 186.191C99.6133 186.801 98.4414 187.105 97.0352 187.105ZM97 183.977C98.3125 183.977 99.2969 183.414 99.9531 182.289C100.398 181.539 100.715 180.613 100.902 179.512C101.113 178.387 101.254 177.25 101.324 176.102C101.395 174.953 101.43 173.969 101.43 173.148C101.43 172.562 101.406 171.836 101.359 170.969C101.336 170.102 101.254 169.188 101.113 168.227C100.973 167.266 100.738 166.363 100.41 165.52C100.105 164.676 99.6719 163.996 99.1094 163.48C98.5469 162.941 97.832 162.672 96.9648 162.672C96.1211 162.672 95.4297 162.93 94.8906 163.445C94.3516 163.938 93.918 164.582 93.5898 165.379C93.2852 166.176 93.0625 167.043 92.9219 167.98C92.7812 168.895 92.6875 169.773 92.6406 170.617C92.6172 171.461 92.6055 172.164 92.6055 172.727C92.6055 173.57 92.6289 174.59 92.6758 175.785C92.7461 176.957 92.875 178.117 93.0625 179.266C93.2734 180.414 93.5781 181.375 93.9766 182.148C94.6094 183.367 95.6172 183.977 97 183.977ZM110.219 186.613C109.445 186.613 108.789 186.344 108.25 185.805C107.711 185.242 107.441 184.574 107.441 183.801V162.848C107.441 162.098 107.711 161.441 108.25 160.879C108.789 160.316 109.434 160.035 110.184 160.035H112.715C114.73 160.035 116.383 160.398 117.672 161.125C118.984 161.852 120.016 162.836 120.766 164.078C121.516 165.32 122.043 166.738 122.348 168.332C122.652 169.902 122.805 171.555 122.805 173.289C122.805 174.812 122.676 176.359 122.418 177.93C122.16 179.5 121.691 180.941 121.012 182.254C120.355 183.566 119.43 184.621 118.234 185.418C117.039 186.215 115.504 186.613 113.629 186.613H110.219ZM112.012 183.52H112.996C114.402 183.52 115.527 183.191 116.371 182.535C117.215 181.879 117.848 181.035 118.27 180.004C118.715 178.949 119.008 177.824 119.148 176.629C119.312 175.41 119.395 174.262 119.395 173.184C119.395 172.129 119.312 171.027 119.148 169.879C119.008 168.707 118.715 167.617 118.27 166.609C117.848 165.578 117.215 164.746 116.371 164.113C115.551 163.457 114.473 163.129 113.137 163.129H111.977C111.555 163.129 111.238 163.27 111.027 163.551C110.84 163.809 110.746 164.137 110.746 164.535V182.113C110.746 182.488 110.852 182.816 111.062 183.098C111.273 183.379 111.59 183.52 112.012 183.52ZM133 180.285C132.484 180.285 132.121 180.121 131.91 179.793C131.723 179.465 131.617 179.078 131.594 178.633L130.926 162.25C130.902 161.477 131.02 160.832 131.277 160.316C131.559 159.801 132.133 159.543 133 159.543C133.75 159.543 134.277 159.766 134.582 160.211C134.887 160.633 135.039 161.195 135.039 161.898V162.25L134.371 178.633C134.348 179.078 134.242 179.465 134.055 179.793C133.867 180.121 133.516 180.285 133 180.285ZM133 187.105C131.406 187.105 130.609 186.297 130.609 184.68C130.609 184 130.844 183.438 131.312 182.992C131.805 182.547 132.379 182.324 133.035 182.324C133.668 182.324 134.219 182.57 134.688 183.062C135.156 183.531 135.391 184.082 135.391 184.715C135.391 186.309 134.594 187.105 133 187.105Z"
              fill="white"/>
    </g>
    <defs>
        <filter id="filter0_d_21_312" x="26.1602" y="123.543" width="143.645" height="65.5625"
                filterUnits="userSpaceOnUse" color-interpolation-filters="sRGB">
            <feFlood flood-opacity="0" result="BackgroundImageFix"/>
            <feColorMatrix in="SourceAlpha" type="matrix" values="0 0 0 0 0 0 0 0 0 0 0 0 0 0 0 0 0 0 127 0"
                           result="hardAlpha"/>
            <feOffset dx="2" dy="2"/>
            <feComposite in2="hardAlpha" operator="out"/>
            <feColorMatrix type="matrix" values="0 0 0 0 0 0 0 0 0 0 0 0 0 0 0 0 0 0 0.25 0"/>
            <feBlend mode="normal" in2="BackgroundImageFix" result="effect1_dropShadow_21_312"/>
            <feBlend mode="normal" in="SourceGraphic" in2="effect1_dropShadow_21_312" result="shape"/>
        </filter>
    </defs>
</svg>
